<svg xmlns="http://www.w3.org/2000/svg" width="760" height="240" viewBox="0 0 760 240"><rect width="100%" height="100%" fill="#f8fafc" /><text x="20" y="24" font-family="monospace" font-size="16" fill="#0f172a">Best Run History (lower is better)</text><line x1="30" y1="210" x2="730" y2="210" stroke="#94a3b8" /><line x1="30" y1="30" x2="30" y2="210" stroke="#94a3b8" /><polyline fill="none" stroke="#0f766e" stroke-width="3" points="30.0,30.0 117.5,104.3 205.0,120.8 292.5,124.3 380.0,129.9 467.5,136.4 555.0,166.4 642.5,179.0 730.0,210.0" /><circle cx="30.0" cy="30.0" r="4" fill="#0f766e" /><text x="30.0" y="230" text-anchor="middle" font-family="monospace" font-size="10">0008</text><circle cx="117.5" cy="104.3" r="4" fill="#0f766e" /><text x="117.5" y="230" text-anchor="middle" font-family="monospace" font-size="10">0003</text><circle cx="205.0" cy="120.8" r="4" fill="#0f766e" /><text x="205.0" y="230" text-anchor="middle" font-family="monospace" font-size="10">0002</text><circle cx="292.5" cy="124.3" r="4" fill="#0f766e" /><text x="292.5" y="230" text-anchor="middle" font-family="monospace" font-size="10">0004</text><circle cx="380.0" cy="129.9" r="4" fill="#0f766e" /><text x="380.0" y="230" text-anchor="middle" font-family="monospace" font-size="10">0001</text><circle cx="467.5" cy="136.4" r="4" fill="#0f766e" /><text x="467.5" y="230" text-anchor="middle" font-family="monospace" font-size="10">0001</text><circle cx="555.0" cy="166.4" r="4" fill="#0f766e" /><text x="555.0" y="230" text-anchor="middle" font-family="monospace" font-size="10">0007</text><circle cx="642.5" cy="179.0" r="4" fill="#0f766e" /><text x="642.5" y="230" text-anchor="middle" font-family="monospace" font-size="10">0005</text><circle cx="730.0" cy="210.0" r="4" fill="#0f766e" /><text x="730.0" y="230" text-anchor="middle" font-family="monospace" font-size="10">0006</text><text x="30" y="22" font-family="monospace" font-size="10">2.2956</text><text x="30" y="226" font-family="monospace" font-size="10">2.2935</text></svg>
