<svg xmlns="http://www.w3.org/2000/svg" width="760" height="280" viewBox="0 0 760 280"><rect width="100%" height="100%" fill="#f8fafc" /><text x="20" y="24" font-family="monospace" font-size="16" fill="#0f172a">Cumulative Best Score By Run (lower is better)</text><line x1="70" y1="36.0" x2="740" y2="36.0" stroke="#e2e8f0" /><text x="62" y="40.0" text-anchor="end" font-family="monospace" font-size="10" fill="#475569">9.7737</text><line x1="70" y1="83.0" x2="740" y2="83.0" stroke="#e2e8f0" /><text x="62" y="87.0" text-anchor="end" font-family="monospace" font-size="10" fill="#475569">8.6692</text><line x1="70" y1="130.0" x2="740" y2="130.0" stroke="#e2e8f0" /><text x="62" y="134.0" text-anchor="end" font-family="monospace" font-size="10" fill="#475569">7.5647</text><line x1="70" y1="177.0" x2="740" y2="177.0" stroke="#e2e8f0" /><text x="62" y="181.0" text-anchor="end" font-family="monospace" font-size="10" fill="#475569">6.4603</text><line x1="70" y1="224.0" x2="740" y2="224.0" stroke="#e2e8f0" /><text x="62" y="228.0" text-anchor="end" font-family="monospace" font-size="10" fill="#475569">5.3558</text><line x1="70" y1="224" x2="740" y2="224" stroke="#94a3b8" /><line x1="70" y1="36" x2="70" y2="224" stroke="#94a3b8" /><polyline fill="none" stroke="#0f766e" stroke-width="3" points="70.0,57.7 107.2,57.9 144.4,57.9 181.7,57.9 218.9,58.1 256.1,58.3 293.3,58.3 330.6,58.3 367.8,58.3 405.0,58.3 442.2,58.3 479.4,108.6 516.7,202.3 553.9,202.3 591.1,202.3 628.3,202.3 665.6,202.3 702.8,202.3 740.0,202.3" /><circle cx="70.0" cy="57.7" r="4" fill="#0f766e" /><text x="70.0" y="252" text-anchor="middle" font-family="monospace" font-size="10" fill="#334155">1</text><circle cx="107.2" cy="57.9" r="4" fill="#0f766e" /><text x="107.2" y="252" text-anchor="middle" font-family="monospace" font-size="10" fill="#334155">2</text><circle cx="144.4" cy="57.9" r="4" fill="#0f766e" /><text x="144.4" y="252" text-anchor="middle" font-family="monospace" font-size="10" fill="#334155">3</text><circle cx="181.7" cy="57.9" r="4" fill="#0f766e" /><text x="181.7" y="252" text-anchor="middle" font-family="monospace" font-size="10" fill="#334155">4</text><circle cx="218.9" cy="58.1" r="4" fill="#0f766e" /><text x="218.9" y="252" text-anchor="middle" font-family="monospace" font-size="10" fill="#334155">5</text><circle cx="256.1" cy="58.3" r="4" fill="#0f766e" /><text x="256.1" y="252" text-anchor="middle" font-family="monospace" font-size="10" fill="#334155">6</text><circle cx="293.3" cy="58.3" r="4" fill="#0f766e" /><text x="293.3" y="252" text-anchor="middle" font-family="monospace" font-size="10" fill="#334155">7</text><circle cx="330.6" cy="58.3" r="4" fill="#0f766e" /><text x="330.6" y="252" text-anchor="middle" font-family="monospace" font-size="10" fill="#334155">8</text><circle cx="367.8" cy="58.3" r="4" fill="#0f766e" /><text x="367.8" y="252" text-anchor="middle" font-family="monospace" font-size="10" fill="#334155">9</text><circle cx="405.0" cy="58.3" r="4" fill="#0f766e" /><text x="405.0" y="252" text-anchor="middle" font-family="monospace" font-size="10" fill="#334155">10</text><circle cx="442.2" cy="58.3" r="4" fill="#0f766e" /><text x="442.2" y="252" text-anchor="middle" font-family="monospace" font-size="10" fill="#334155">11</text><circle cx="479.4" cy="108.6" r="4" fill="#0f766e" /><text x="479.4" y="252" text-anchor="middle" font-family="monospace" font-size="10" fill="#334155">12</text><circle cx="516.7" cy="202.3" r="4" fill="#0f766e" /><text x="516.7" y="252" text-anchor="middle" font-family="monospace" font-size="10" fill="#334155">13</text><circle cx="553.9" cy="202.3" r="4" fill="#0f766e" /><text x="553.9" y="252" text-anchor="middle" font-family="monospace" font-size="10" fill="#334155">14</text><circle cx="591.1" cy="202.3" r="4" fill="#0f766e" /><text x="591.1" y="252" text-anchor="middle" font-family="monospace" font-size="10" fill="#334155">15</text><circle cx="628.3" cy="202.3" r="4" fill="#0f766e" /><text x="628.3" y="252" text-anchor="middle" font-family="monospace" font-size="10" fill="#334155">16</text><circle cx="665.6" cy="202.3" r="4" fill="#0f766e" /><text x="665.6" y="252" text-anchor="middle" font-family="monospace" font-size="10" fill="#334155">17</text><circle cx="702.8" cy="202.3" r="4" fill="#0f766e" /><text x="702.8" y="252" text-anchor="middle" font-family="monospace" font-size="10" fill="#334155">18</text><circle cx="740.0" cy="202.3" r="4" fill="#0f766e" /><text x="740.0" y="252" text-anchor="middle" font-family="monospace" font-size="10" fill="#334155">19</text><text x="380.0" y="272" text-anchor="middle" font-family="monospace" font-size="11" fill="#334155">Run Number</text><text x="16" y="140.0" text-anchor="middle" font-family="monospace" font-size="11" fill="#334155" transform="rotate(-90 16 140.0)">Score</text></svg>
