<svg xmlns="http://www.w3.org/2000/svg" width="760" height="280" viewBox="0 0 760 280"><rect width="100%" height="100%" fill="#f8fafc" /><text x="20" y="24" font-family="monospace" font-size="16" fill="#0f172a">Cumulative Best Score By Run (lower is better)</text><line x1="70" y1="36.0" x2="740" y2="36.0" stroke="#e2e8f0" /><text x="62" y="40.0" text-anchor="end" font-family="monospace" font-size="10" fill="#475569">9.2660</text><line x1="70" y1="83.0" x2="740" y2="83.0" stroke="#e2e8f0" /><text x="62" y="87.0" text-anchor="end" font-family="monospace" font-size="10" fill="#475569">9.2616</text><line x1="70" y1="130.0" x2="740" y2="130.0" stroke="#e2e8f0" /><text x="62" y="134.0" text-anchor="end" font-family="monospace" font-size="10" fill="#475569">9.2572</text><line x1="70" y1="177.0" x2="740" y2="177.0" stroke="#e2e8f0" /><text x="62" y="181.0" text-anchor="end" font-family="monospace" font-size="10" fill="#475569">9.2529</text><line x1="70" y1="224.0" x2="740" y2="224.0" stroke="#e2e8f0" /><text x="62" y="228.0" text-anchor="end" font-family="monospace" font-size="10" fill="#475569">9.2485</text><line x1="70" y1="224" x2="740" y2="224" stroke="#94a3b8" /><line x1="70" y1="36" x2="70" y2="224" stroke="#94a3b8" /><polyline fill="none" stroke="#0f766e" stroke-width="3" points="70.0,57.7 137.0,100.5 204.0,116.3 271.0,116.3 338.0,160.9 405.0,202.3 472.0,202.3 539.0,202.3 606.0,202.3 673.0,202.3 740.0,202.3" /><circle cx="70.0" cy="57.7" r="4" fill="#0f766e" /><text x="70.0" y="252" text-anchor="middle" font-family="monospace" font-size="10" fill="#334155">1</text><circle cx="137.0" cy="100.5" r="4" fill="#0f766e" /><text x="137.0" y="252" text-anchor="middle" font-family="monospace" font-size="10" fill="#334155">2</text><circle cx="204.0" cy="116.3" r="4" fill="#0f766e" /><text x="204.0" y="252" text-anchor="middle" font-family="monospace" font-size="10" fill="#334155">3</text><circle cx="271.0" cy="116.3" r="4" fill="#0f766e" /><text x="271.0" y="252" text-anchor="middle" font-family="monospace" font-size="10" fill="#334155">4</text><circle cx="338.0" cy="160.9" r="4" fill="#0f766e" /><text x="338.0" y="252" text-anchor="middle" font-family="monospace" font-size="10" fill="#334155">5</text><circle cx="405.0" cy="202.3" r="4" fill="#0f766e" /><text x="405.0" y="252" text-anchor="middle" font-family="monospace" font-size="10" fill="#334155">6</text><circle cx="472.0" cy="202.3" r="4" fill="#0f766e" /><text x="472.0" y="252" text-anchor="middle" font-family="monospace" font-size="10" fill="#334155">7</text><circle cx="539.0" cy="202.3" r="4" fill="#0f766e" /><text x="539.0" y="252" text-anchor="middle" font-family="monospace" font-size="10" fill="#334155">8</text><circle cx="606.0" cy="202.3" r="4" fill="#0f766e" /><text x="606.0" y="252" text-anchor="middle" font-family="monospace" font-size="10" fill="#334155">9</text><circle cx="673.0" cy="202.3" r="4" fill="#0f766e" /><text x="673.0" y="252" text-anchor="middle" font-family="monospace" font-size="10" fill="#334155">10</text><circle cx="740.0" cy="202.3" r="4" fill="#0f766e" /><text x="740.0" y="252" text-anchor="middle" font-family="monospace" font-size="10" fill="#334155">11</text><text x="380.0" y="272" text-anchor="middle" font-family="monospace" font-size="11" fill="#334155">Run Number</text><text x="16" y="140.0" text-anchor="middle" font-family="monospace" font-size="11" fill="#334155" transform="rotate(-90 16 140.0)">Score</text></svg>
