<svg xmlns="http://www.w3.org/2000/svg" width="760" height="280" viewBox="0 0 760 280"><rect width="100%" height="100%" fill="#f8fafc" /><text x="20" y="24" font-family="monospace" font-size="16" fill="#0f172a">Cumulative Best Score By Run (lower is better)</text><line x1="70" y1="36.0" x2="740" y2="36.0" stroke="#e2e8f0" /><text x="62" y="40.0" text-anchor="end" font-family="monospace" font-size="10" fill="#475569">10.1498</text><line x1="70" y1="83.0" x2="740" y2="83.0" stroke="#e2e8f0" /><text x="62" y="87.0" text-anchor="end" font-family="monospace" font-size="10" fill="#475569">8.2304</text><line x1="70" y1="130.0" x2="740" y2="130.0" stroke="#e2e8f0" /><text x="62" y="134.0" text-anchor="end" font-family="monospace" font-size="10" fill="#475569">6.3110</text><line x1="70" y1="177.0" x2="740" y2="177.0" stroke="#e2e8f0" /><text x="62" y="181.0" text-anchor="end" font-family="monospace" font-size="10" fill="#475569">4.3916</text><line x1="70" y1="224.0" x2="740" y2="224.0" stroke="#e2e8f0" /><text x="62" y="228.0" text-anchor="end" font-family="monospace" font-size="10" fill="#475569">2.4722</text><line x1="70" y1="224" x2="740" y2="224" stroke="#94a3b8" /><line x1="70" y1="36" x2="70" y2="224" stroke="#94a3b8" /><polyline fill="none" stroke="#0f766e" stroke-width="3" points="70.0,57.7 101.9,57.8 133.8,57.8 165.7,57.8 197.6,57.9 229.5,58.0 261.4,58.0 293.3,58.0 325.2,58.0 357.1,58.0 389.0,58.0 421.0,87.0 452.9,140.9 484.8,140.9 516.7,140.9 548.6,140.9 580.5,140.9 612.4,140.9 644.3,140.9 676.2,140.9 708.1,140.9 740.0,202.3" /><circle cx="70.0" cy="57.7" r="4" fill="#0f766e" /><text x="70.0" y="252" text-anchor="middle" font-family="monospace" font-size="10" fill="#334155">1</text><circle cx="101.9" cy="57.8" r="4" fill="#0f766e" /><text x="101.9" y="252" text-anchor="middle" font-family="monospace" font-size="10" fill="#334155">2</text><circle cx="133.8" cy="57.8" r="4" fill="#0f766e" /><text x="133.8" y="252" text-anchor="middle" font-family="monospace" font-size="10" fill="#334155">3</text><circle cx="165.7" cy="57.8" r="4" fill="#0f766e" /><text x="165.7" y="252" text-anchor="middle" font-family="monospace" font-size="10" fill="#334155">4</text><circle cx="197.6" cy="57.9" r="4" fill="#0f766e" /><text x="197.6" y="252" text-anchor="middle" font-family="monospace" font-size="10" fill="#334155">5</text><circle cx="229.5" cy="58.0" r="4" fill="#0f766e" /><text x="229.5" y="252" text-anchor="middle" font-family="monospace" font-size="10" fill="#334155">6</text><circle cx="261.4" cy="58.0" r="4" fill="#0f766e" /><text x="261.4" y="252" text-anchor="middle" font-family="monospace" font-size="10" fill="#334155">7</text><circle cx="293.3" cy="58.0" r="4" fill="#0f766e" /><text x="293.3" y="252" text-anchor="middle" font-family="monospace" font-size="10" fill="#334155">8</text><circle cx="325.2" cy="58.0" r="4" fill="#0f766e" /><text x="325.2" y="252" text-anchor="middle" font-family="monospace" font-size="10" fill="#334155">9</text><circle cx="357.1" cy="58.0" r="4" fill="#0f766e" /><text x="357.1" y="252" text-anchor="middle" font-family="monospace" font-size="10" fill="#334155">10</text><circle cx="389.0" cy="58.0" r="4" fill="#0f766e" /><text x="389.0" y="252" text-anchor="middle" font-family="monospace" font-size="10" fill="#334155">11</text><circle cx="421.0" cy="87.0" r="4" fill="#0f766e" /><text x="421.0" y="252" text-anchor="middle" font-family="monospace" font-size="10" fill="#334155">12</text><circle cx="452.9" cy="140.9" r="4" fill="#0f766e" /><text x="452.9" y="252" text-anchor="middle" font-family="monospace" font-size="10" fill="#334155">13</text><circle cx="484.8" cy="140.9" r="4" fill="#0f766e" /><text x="484.8" y="252" text-anchor="middle" font-family="monospace" font-size="10" fill="#334155">14</text><circle cx="516.7" cy="140.9" r="4" fill="#0f766e" /><text x="516.7" y="252" text-anchor="middle" font-family="monospace" font-size="10" fill="#334155">15</text><circle cx="548.6" cy="140.9" r="4" fill="#0f766e" /><text x="548.6" y="252" text-anchor="middle" font-family="monospace" font-size="10" fill="#334155">16</text><circle cx="580.5" cy="140.9" r="4" fill="#0f766e" /><text x="580.5" y="252" text-anchor="middle" font-family="monospace" font-size="10" fill="#334155">17</text><circle cx="612.4" cy="140.9" r="4" fill="#0f766e" /><text x="612.4" y="252" text-anchor="middle" font-family="monospace" font-size="10" fill="#334155">18</text><circle cx="644.3" cy="140.9" r="4" fill="#0f766e" /><text x="644.3" y="252" text-anchor="middle" font-family="monospace" font-size="10" fill="#334155">19</text><circle cx="676.2" cy="140.9" r="4" fill="#0f766e" /><text x="676.2" y="252" text-anchor="middle" font-family="monospace" font-size="10" fill="#334155">20</text><circle cx="708.1" cy="140.9" r="4" fill="#0f766e" /><text x="708.1" y="252" text-anchor="middle" font-family="monospace" font-size="10" fill="#334155">21</text><circle cx="740.0" cy="202.3" r="4" fill="#0f766e" /><text x="740.0" y="252" text-anchor="middle" font-family="monospace" font-size="10" fill="#334155">22</text><text x="380.0" y="272" text-anchor="middle" font-family="monospace" font-size="11" fill="#334155">Run Number</text><text x="16" y="140.0" text-anchor="middle" font-family="monospace" font-size="11" fill="#334155" transform="rotate(-90 16 140.0)">Score</text></svg>
