<svg xmlns="http://www.w3.org/2000/svg" width="760" height="280" viewBox="0 0 760 280"><rect width="100%" height="100%" fill="#f8fafc" /><text x="20" y="24" font-family="monospace" font-size="16" fill="#0f172a">Best Runs Over Time (lower is better)</text><line x1="70" y1="36.0" x2="740" y2="36.0" stroke="#e2e8f0" /><text x="62" y="40.0" text-anchor="end" font-family="monospace" font-size="10" fill="#475569">2.2956</text><line x1="70" y1="83.0" x2="740" y2="83.0" stroke="#e2e8f0" /><text x="62" y="87.0" text-anchor="end" font-family="monospace" font-size="10" fill="#475569">2.2945</text><line x1="70" y1="130.0" x2="740" y2="130.0" stroke="#e2e8f0" /><text x="62" y="134.0" text-anchor="end" font-family="monospace" font-size="10" fill="#475569">2.2934</text><line x1="70" y1="177.0" x2="740" y2="177.0" stroke="#e2e8f0" /><text x="62" y="181.0" text-anchor="end" font-family="monospace" font-size="10" fill="#475569">2.2924</text><line x1="70" y1="224.0" x2="740" y2="224.0" stroke="#e2e8f0" /><text x="62" y="228.0" text-anchor="end" font-family="monospace" font-size="10" fill="#475569">2.2913</text><line x1="70" y1="224" x2="740" y2="224" stroke="#94a3b8" /><line x1="70" y1="36" x2="70" y2="224" stroke="#94a3b8" /><polyline fill="none" stroke="#0f766e" stroke-width="3" points="70.0,85.5 144.4,88.9 218.9,80.7 293.3,82.6 367.8,111.3 442.2,127.5 516.7,104.7 591.1,179.3 665.6,110.3 740.0,102.8" /><circle cx="70.0" cy="85.5" r="4" fill="#0f766e" /><text x="70.0" y="252" text-anchor="middle" font-family="monospace" font-size="10" fill="#334155">0001</text><circle cx="144.4" cy="88.9" r="4" fill="#0f766e" /><text x="144.4" y="252" text-anchor="middle" font-family="monospace" font-size="10" fill="#334155">0001</text><circle cx="218.9" cy="80.7" r="4" fill="#0f766e" /><text x="218.9" y="252" text-anchor="middle" font-family="monospace" font-size="10" fill="#334155">0002</text><circle cx="293.3" cy="82.6" r="4" fill="#0f766e" /><text x="293.3" y="252" text-anchor="middle" font-family="monospace" font-size="10" fill="#334155">0004</text><circle cx="367.8" cy="111.3" r="4" fill="#0f766e" /><text x="367.8" y="252" text-anchor="middle" font-family="monospace" font-size="10" fill="#334155">0005</text><circle cx="442.2" cy="127.5" r="4" fill="#0f766e" /><text x="442.2" y="252" text-anchor="middle" font-family="monospace" font-size="10" fill="#334155">0006</text><circle cx="516.7" cy="104.7" r="4" fill="#0f766e" /><text x="516.7" y="252" text-anchor="middle" font-family="monospace" font-size="10" fill="#334155">0007</text><circle cx="591.1" cy="179.3" r="4" fill="#0f766e" /><text x="591.1" y="252" text-anchor="middle" font-family="monospace" font-size="10" fill="#334155">0010</text><circle cx="665.6" cy="110.3" r="4" fill="#0f766e" /><text x="665.6" y="252" text-anchor="middle" font-family="monospace" font-size="10" fill="#334155">0011</text><circle cx="740.0" cy="102.8" r="4" fill="#0f766e" /><text x="740.0" y="252" text-anchor="middle" font-family="monospace" font-size="10" fill="#334155">0013</text><text x="380.0" y="272" text-anchor="middle" font-family="monospace" font-size="11" fill="#334155">Run Number</text><text x="16" y="140.0" text-anchor="middle" font-family="monospace" font-size="11" fill="#334155" transform="rotate(-90 16 140.0)">Score</text></svg>
