<svg xmlns="http://www.w3.org/2000/svg" width="760" height="280" viewBox="0 0 760 280"><rect width="100%" height="100%" fill="#f8fafc" /><text x="20" y="24" font-family="monospace" font-size="16" fill="#0f172a">Cumulative Best Score By Run (lower is better)</text><line x1="70" y1="36.0" x2="740" y2="36.0" stroke="#e2e8f0" /><text x="62" y="40.0" text-anchor="end" font-family="monospace" font-size="10" fill="#475569">10.1499</text><line x1="70" y1="83.0" x2="740" y2="83.0" stroke="#e2e8f0" /><text x="62" y="87.0" text-anchor="end" font-family="monospace" font-size="10" fill="#475569">8.2303</text><line x1="70" y1="130.0" x2="740" y2="130.0" stroke="#e2e8f0" /><text x="62" y="134.0" text-anchor="end" font-family="monospace" font-size="10" fill="#475569">6.3108</text><line x1="70" y1="177.0" x2="740" y2="177.0" stroke="#e2e8f0" /><text x="62" y="181.0" text-anchor="end" font-family="monospace" font-size="10" fill="#475569">4.3912</text><line x1="70" y1="224.0" x2="740" y2="224.0" stroke="#e2e8f0" /><text x="62" y="228.0" text-anchor="end" font-family="monospace" font-size="10" fill="#475569">2.4716</text><line x1="70" y1="224" x2="740" y2="224" stroke="#94a3b8" /><line x1="70" y1="36" x2="70" y2="224" stroke="#94a3b8" /><polyline fill="none" stroke="#0f766e" stroke-width="3" points="70.0,57.7 97.9,57.8 125.8,57.8 153.8,57.8 181.7,57.9 209.6,58.0 237.5,58.0 265.4,58.0 293.3,58.0 321.2,58.0 349.2,58.0 377.1,87.0 405.0,140.9 432.9,140.9 460.8,140.9 488.8,140.9 516.7,140.9 544.6,140.9 572.5,140.9 600.4,140.9 628.3,140.9 656.2,202.3 684.2,202.3 712.1,202.3 740.0,202.3" /><circle cx="70.0" cy="57.7" r="4" fill="#0f766e" /><text x="70.0" y="252" text-anchor="middle" font-family="monospace" font-size="10" fill="#334155">1</text><circle cx="97.9" cy="57.8" r="4" fill="#0f766e" /><text x="97.9" y="252" text-anchor="middle" font-family="monospace" font-size="10" fill="#334155">2</text><circle cx="125.8" cy="57.8" r="4" fill="#0f766e" /><text x="125.8" y="252" text-anchor="middle" font-family="monospace" font-size="10" fill="#334155">3</text><circle cx="153.8" cy="57.8" r="4" fill="#0f766e" /><text x="153.8" y="252" text-anchor="middle" font-family="monospace" font-size="10" fill="#334155">4</text><circle cx="181.7" cy="57.9" r="4" fill="#0f766e" /><text x="181.7" y="252" text-anchor="middle" font-family="monospace" font-size="10" fill="#334155">5</text><circle cx="209.6" cy="58.0" r="4" fill="#0f766e" /><text x="209.6" y="252" text-anchor="middle" font-family="monospace" font-size="10" fill="#334155">6</text><circle cx="237.5" cy="58.0" r="4" fill="#0f766e" /><text x="237.5" y="252" text-anchor="middle" font-family="monospace" font-size="10" fill="#334155">7</text><circle cx="265.4" cy="58.0" r="4" fill="#0f766e" /><text x="265.4" y="252" text-anchor="middle" font-family="monospace" font-size="10" fill="#334155">8</text><circle cx="293.3" cy="58.0" r="4" fill="#0f766e" /><text x="293.3" y="252" text-anchor="middle" font-family="monospace" font-size="10" fill="#334155">9</text><circle cx="321.2" cy="58.0" r="4" fill="#0f766e" /><text x="321.2" y="252" text-anchor="middle" font-family="monospace" font-size="10" fill="#334155">10</text><circle cx="349.2" cy="58.0" r="4" fill="#0f766e" /><text x="349.2" y="252" text-anchor="middle" font-family="monospace" font-size="10" fill="#334155">11</text><circle cx="377.1" cy="87.0" r="4" fill="#0f766e" /><text x="377.1" y="252" text-anchor="middle" font-family="monospace" font-size="10" fill="#334155">12</text><circle cx="405.0" cy="140.9" r="4" fill="#0f766e" /><text x="405.0" y="252" text-anchor="middle" font-family="monospace" font-size="10" fill="#334155">13</text><circle cx="432.9" cy="140.9" r="4" fill="#0f766e" /><text x="432.9" y="252" text-anchor="middle" font-family="monospace" font-size="10" fill="#334155">14</text><circle cx="460.8" cy="140.9" r="4" fill="#0f766e" /><text x="460.8" y="252" text-anchor="middle" font-family="monospace" font-size="10" fill="#334155">15</text><circle cx="488.8" cy="140.9" r="4" fill="#0f766e" /><text x="488.8" y="252" text-anchor="middle" font-family="monospace" font-size="10" fill="#334155">16</text><circle cx="516.7" cy="140.9" r="4" fill="#0f766e" /><text x="516.7" y="252" text-anchor="middle" font-family="monospace" font-size="10" fill="#334155">17</text><circle cx="544.6" cy="140.9" r="4" fill="#0f766e" /><text x="544.6" y="252" text-anchor="middle" font-family="monospace" font-size="10" fill="#334155">18</text><circle cx="572.5" cy="140.9" r="4" fill="#0f766e" /><text x="572.5" y="252" text-anchor="middle" font-family="monospace" font-size="10" fill="#334155">19</text><circle cx="600.4" cy="140.9" r="4" fill="#0f766e" /><text x="600.4" y="252" text-anchor="middle" font-family="monospace" font-size="10" fill="#334155">20</text><circle cx="628.3" cy="140.9" r="4" fill="#0f766e" /><text x="628.3" y="252" text-anchor="middle" font-family="monospace" font-size="10" fill="#334155">21</text><circle cx="656.2" cy="202.3" r="4" fill="#0f766e" /><text x="656.2" y="252" text-anchor="middle" font-family="monospace" font-size="10" fill="#334155">22</text><circle cx="684.2" cy="202.3" r="4" fill="#0f766e" /><text x="684.2" y="252" text-anchor="middle" font-family="monospace" font-size="10" fill="#334155">23</text><circle cx="712.1" cy="202.3" r="4" fill="#0f766e" /><text x="712.1" y="252" text-anchor="middle" font-family="monospace" font-size="10" fill="#334155">24</text><circle cx="740.0" cy="202.3" r="4" fill="#0f766e" /><text x="740.0" y="252" text-anchor="middle" font-family="monospace" font-size="10" fill="#334155">25</text><text x="380.0" y="272" text-anchor="middle" font-family="monospace" font-size="11" fill="#334155">Run Number</text><text x="16" y="140.0" text-anchor="middle" font-family="monospace" font-size="11" fill="#334155" transform="rotate(-90 16 140.0)">Score</text></svg>
