<svg xmlns="http://www.w3.org/2000/svg" width="760" height="280" viewBox="0 0 760 280"><rect width="100%" height="100%" fill="#f8fafc" /><text x="20" y="24" font-family="monospace" font-size="16" fill="#0f172a">Cumulative Best Score By Run (lower is better)</text><line x1="70" y1="36.0" x2="740" y2="36.0" stroke="#e2e8f0" /><text x="62" y="40.0" text-anchor="end" font-family="monospace" font-size="10" fill="#475569">9.7737</text><line x1="70" y1="83.0" x2="740" y2="83.0" stroke="#e2e8f0" /><text x="62" y="87.0" text-anchor="end" font-family="monospace" font-size="10" fill="#475569">8.6692</text><line x1="70" y1="130.0" x2="740" y2="130.0" stroke="#e2e8f0" /><text x="62" y="134.0" text-anchor="end" font-family="monospace" font-size="10" fill="#475569">7.5647</text><line x1="70" y1="177.0" x2="740" y2="177.0" stroke="#e2e8f0" /><text x="62" y="181.0" text-anchor="end" font-family="monospace" font-size="10" fill="#475569">6.4603</text><line x1="70" y1="224.0" x2="740" y2="224.0" stroke="#e2e8f0" /><text x="62" y="228.0" text-anchor="end" font-family="monospace" font-size="10" fill="#475569">5.3558</text><line x1="70" y1="224" x2="740" y2="224" stroke="#94a3b8" /><line x1="70" y1="36" x2="70" y2="224" stroke="#94a3b8" /><polyline fill="none" stroke="#0f766e" stroke-width="3" points="70.0,57.7 109.4,57.9 148.8,57.9 188.2,57.9 227.6,58.1 267.1,58.3 306.5,58.3 345.9,58.3 385.3,58.3 424.7,58.3 464.1,58.3 503.5,108.6 542.9,202.3 582.4,202.3 621.8,202.3 661.2,202.3 700.6,202.3 740.0,202.3" /><circle cx="70.0" cy="57.7" r="4" fill="#0f766e" /><text x="70.0" y="252" text-anchor="middle" font-family="monospace" font-size="10" fill="#334155">1</text><circle cx="109.4" cy="57.9" r="4" fill="#0f766e" /><text x="109.4" y="252" text-anchor="middle" font-family="monospace" font-size="10" fill="#334155">2</text><circle cx="148.8" cy="57.9" r="4" fill="#0f766e" /><text x="148.8" y="252" text-anchor="middle" font-family="monospace" font-size="10" fill="#334155">3</text><circle cx="188.2" cy="57.9" r="4" fill="#0f766e" /><text x="188.2" y="252" text-anchor="middle" font-family="monospace" font-size="10" fill="#334155">4</text><circle cx="227.6" cy="58.1" r="4" fill="#0f766e" /><text x="227.6" y="252" text-anchor="middle" font-family="monospace" font-size="10" fill="#334155">5</text><circle cx="267.1" cy="58.3" r="4" fill="#0f766e" /><text x="267.1" y="252" text-anchor="middle" font-family="monospace" font-size="10" fill="#334155">6</text><circle cx="306.5" cy="58.3" r="4" fill="#0f766e" /><text x="306.5" y="252" text-anchor="middle" font-family="monospace" font-size="10" fill="#334155">7</text><circle cx="345.9" cy="58.3" r="4" fill="#0f766e" /><text x="345.9" y="252" text-anchor="middle" font-family="monospace" font-size="10" fill="#334155">8</text><circle cx="385.3" cy="58.3" r="4" fill="#0f766e" /><text x="385.3" y="252" text-anchor="middle" font-family="monospace" font-size="10" fill="#334155">9</text><circle cx="424.7" cy="58.3" r="4" fill="#0f766e" /><text x="424.7" y="252" text-anchor="middle" font-family="monospace" font-size="10" fill="#334155">10</text><circle cx="464.1" cy="58.3" r="4" fill="#0f766e" /><text x="464.1" y="252" text-anchor="middle" font-family="monospace" font-size="10" fill="#334155">11</text><circle cx="503.5" cy="108.6" r="4" fill="#0f766e" /><text x="503.5" y="252" text-anchor="middle" font-family="monospace" font-size="10" fill="#334155">12</text><circle cx="542.9" cy="202.3" r="4" fill="#0f766e" /><text x="542.9" y="252" text-anchor="middle" font-family="monospace" font-size="10" fill="#334155">13</text><circle cx="582.4" cy="202.3" r="4" fill="#0f766e" /><text x="582.4" y="252" text-anchor="middle" font-family="monospace" font-size="10" fill="#334155">14</text><circle cx="621.8" cy="202.3" r="4" fill="#0f766e" /><text x="621.8" y="252" text-anchor="middle" font-family="monospace" font-size="10" fill="#334155">15</text><circle cx="661.2" cy="202.3" r="4" fill="#0f766e" /><text x="661.2" y="252" text-anchor="middle" font-family="monospace" font-size="10" fill="#334155">16</text><circle cx="700.6" cy="202.3" r="4" fill="#0f766e" /><text x="700.6" y="252" text-anchor="middle" font-family="monospace" font-size="10" fill="#334155">17</text><circle cx="740.0" cy="202.3" r="4" fill="#0f766e" /><text x="740.0" y="252" text-anchor="middle" font-family="monospace" font-size="10" fill="#334155">18</text><text x="380.0" y="272" text-anchor="middle" font-family="monospace" font-size="11" fill="#334155">Run Number</text><text x="16" y="140.0" text-anchor="middle" font-family="monospace" font-size="11" fill="#334155" transform="rotate(-90 16 140.0)">Score</text></svg>
