<svg xmlns="http://www.w3.org/2000/svg" width="760" height="240" viewBox="0 0 760 240"><rect width="100%" height="100%" fill="#f8fafc" /><text x="20" y="24" font-family="monospace" font-size="16" fill="#0f172a">Best Run History (lower is better)</text><line x1="30" y1="210" x2="730" y2="210" stroke="#94a3b8" /><line x1="30" y1="30" x2="30" y2="210" stroke="#94a3b8" /><polyline fill="none" stroke="#0f766e" stroke-width="3" points="30.0,30.0 130.0,58.2 230.0,64.1 330.0,73.6 430.0,84.7 530.0,135.8 630.0,157.3 730.0,210.0" /><circle cx="30.0" cy="30.0" r="4" fill="#0f766e" /><text x="30.0" y="230" text-anchor="middle" font-family="monospace" font-size="10">0003</text><circle cx="130.0" cy="58.2" r="4" fill="#0f766e" /><text x="130.0" y="230" text-anchor="middle" font-family="monospace" font-size="10">0002</text><circle cx="230.0" cy="64.1" r="4" fill="#0f766e" /><text x="230.0" y="230" text-anchor="middle" font-family="monospace" font-size="10">0004</text><circle cx="330.0" cy="73.6" r="4" fill="#0f766e" /><text x="330.0" y="230" text-anchor="middle" font-family="monospace" font-size="10">0001</text><circle cx="430.0" cy="84.7" r="4" fill="#0f766e" /><text x="430.0" y="230" text-anchor="middle" font-family="monospace" font-size="10">0001</text><circle cx="530.0" cy="135.8" r="4" fill="#0f766e" /><text x="530.0" y="230" text-anchor="middle" font-family="monospace" font-size="10">0007</text><circle cx="630.0" cy="157.3" r="4" fill="#0f766e" /><text x="630.0" y="230" text-anchor="middle" font-family="monospace" font-size="10">0005</text><circle cx="730.0" cy="210.0" r="4" fill="#0f766e" /><text x="730.0" y="230" text-anchor="middle" font-family="monospace" font-size="10">0006</text><text x="30" y="22" font-family="monospace" font-size="10">2.2947</text><text x="30" y="226" font-family="monospace" font-size="10">2.2935</text></svg>
