<svg xmlns="http://www.w3.org/2000/svg" width="760" height="240" viewBox="0 0 760 240"><rect width="100%" height="100%" fill="#f8fafc" /><text x="20" y="24" font-family="monospace" font-size="16" fill="#0f172a">Best Run History (lower is better)</text><line x1="30" y1="210" x2="730" y2="210" stroke="#94a3b8" /><line x1="30" y1="30" x2="30" y2="210" stroke="#94a3b8" /><polyline fill="none" stroke="#0f766e" stroke-width="3" points="30.0,30.0 170.0,69.8 310.0,78.3 450.0,91.6 590.0,107.4 730.0,210.0" /><circle cx="30.0" cy="30.0" r="4" fill="#0f766e" /><text x="30.0" y="230" text-anchor="middle" font-family="monospace" font-size="10">0003</text><circle cx="170.0" cy="69.8" r="4" fill="#0f766e" /><text x="170.0" y="230" text-anchor="middle" font-family="monospace" font-size="10">0002</text><circle cx="310.0" cy="78.3" r="4" fill="#0f766e" /><text x="310.0" y="230" text-anchor="middle" font-family="monospace" font-size="10">0004</text><circle cx="450.0" cy="91.6" r="4" fill="#0f766e" /><text x="450.0" y="230" text-anchor="middle" font-family="monospace" font-size="10">0001</text><circle cx="590.0" cy="107.4" r="4" fill="#0f766e" /><text x="590.0" y="230" text-anchor="middle" font-family="monospace" font-size="10">0001</text><circle cx="730.0" cy="210.0" r="4" fill="#0f766e" /><text x="730.0" y="230" text-anchor="middle" font-family="monospace" font-size="10">0005</text><text x="30" y="22" font-family="monospace" font-size="10">2.2947</text><text x="30" y="226" font-family="monospace" font-size="10">2.2939</text></svg>
