<svg xmlns="http://www.w3.org/2000/svg" width="760" height="280" viewBox="0 0 760 280"><rect width="100%" height="100%" fill="#f8fafc" /><text x="20" y="24" font-family="monospace" font-size="16" fill="#0f172a">Cumulative Best Score By Run (lower is better)</text><line x1="70" y1="36.0" x2="740" y2="36.0" stroke="#e2e8f0" /><text x="62" y="40.0" text-anchor="end" font-family="monospace" font-size="10" fill="#475569">10.1499</text><line x1="70" y1="83.0" x2="740" y2="83.0" stroke="#e2e8f0" /><text x="62" y="87.0" text-anchor="end" font-family="monospace" font-size="10" fill="#475569">8.2303</text><line x1="70" y1="130.0" x2="740" y2="130.0" stroke="#e2e8f0" /><text x="62" y="134.0" text-anchor="end" font-family="monospace" font-size="10" fill="#475569">6.3108</text><line x1="70" y1="177.0" x2="740" y2="177.0" stroke="#e2e8f0" /><text x="62" y="181.0" text-anchor="end" font-family="monospace" font-size="10" fill="#475569">4.3912</text><line x1="70" y1="224.0" x2="740" y2="224.0" stroke="#e2e8f0" /><text x="62" y="228.0" text-anchor="end" font-family="monospace" font-size="10" fill="#475569">2.4716</text><line x1="70" y1="224" x2="740" y2="224" stroke="#94a3b8" /><line x1="70" y1="36" x2="70" y2="224" stroke="#94a3b8" /><polyline fill="none" stroke="#0f766e" stroke-width="3" points="70.0,57.7 96.8,57.8 123.6,57.8 150.4,57.8 177.2,57.9 204.0,58.0 230.8,58.0 257.6,58.0 284.4,58.0 311.2,58.0 338.0,58.0 364.8,87.0 391.6,140.9 418.4,140.9 445.2,140.9 472.0,140.9 498.8,140.9 525.6,140.9 552.4,140.9 579.2,140.9 606.0,140.9 632.8,202.3 659.6,202.3 686.4,202.3 713.2,202.3 740.0,202.3" /><circle cx="70.0" cy="57.7" r="4" fill="#0f766e" /><text x="70.0" y="252" text-anchor="middle" font-family="monospace" font-size="10" fill="#334155">1</text><circle cx="96.8" cy="57.8" r="4" fill="#0f766e" /><text x="96.8" y="252" text-anchor="middle" font-family="monospace" font-size="10" fill="#334155">2</text><circle cx="123.6" cy="57.8" r="4" fill="#0f766e" /><text x="123.6" y="252" text-anchor="middle" font-family="monospace" font-size="10" fill="#334155">3</text><circle cx="150.4" cy="57.8" r="4" fill="#0f766e" /><text x="150.4" y="252" text-anchor="middle" font-family="monospace" font-size="10" fill="#334155">4</text><circle cx="177.2" cy="57.9" r="4" fill="#0f766e" /><text x="177.2" y="252" text-anchor="middle" font-family="monospace" font-size="10" fill="#334155">5</text><circle cx="204.0" cy="58.0" r="4" fill="#0f766e" /><text x="204.0" y="252" text-anchor="middle" font-family="monospace" font-size="10" fill="#334155">6</text><circle cx="230.8" cy="58.0" r="4" fill="#0f766e" /><text x="230.8" y="252" text-anchor="middle" font-family="monospace" font-size="10" fill="#334155">7</text><circle cx="257.6" cy="58.0" r="4" fill="#0f766e" /><text x="257.6" y="252" text-anchor="middle" font-family="monospace" font-size="10" fill="#334155">8</text><circle cx="284.4" cy="58.0" r="4" fill="#0f766e" /><text x="284.4" y="252" text-anchor="middle" font-family="monospace" font-size="10" fill="#334155">9</text><circle cx="311.2" cy="58.0" r="4" fill="#0f766e" /><text x="311.2" y="252" text-anchor="middle" font-family="monospace" font-size="10" fill="#334155">10</text><circle cx="338.0" cy="58.0" r="4" fill="#0f766e" /><text x="338.0" y="252" text-anchor="middle" font-family="monospace" font-size="10" fill="#334155">11</text><circle cx="364.8" cy="87.0" r="4" fill="#0f766e" /><text x="364.8" y="252" text-anchor="middle" font-family="monospace" font-size="10" fill="#334155">12</text><circle cx="391.6" cy="140.9" r="4" fill="#0f766e" /><text x="391.6" y="252" text-anchor="middle" font-family="monospace" font-size="10" fill="#334155">13</text><circle cx="418.4" cy="140.9" r="4" fill="#0f766e" /><text x="418.4" y="252" text-anchor="middle" font-family="monospace" font-size="10" fill="#334155">14</text><circle cx="445.2" cy="140.9" r="4" fill="#0f766e" /><text x="445.2" y="252" text-anchor="middle" font-family="monospace" font-size="10" fill="#334155">15</text><circle cx="472.0" cy="140.9" r="4" fill="#0f766e" /><text x="472.0" y="252" text-anchor="middle" font-family="monospace" font-size="10" fill="#334155">16</text><circle cx="498.8" cy="140.9" r="4" fill="#0f766e" /><text x="498.8" y="252" text-anchor="middle" font-family="monospace" font-size="10" fill="#334155">17</text><circle cx="525.6" cy="140.9" r="4" fill="#0f766e" /><text x="525.6" y="252" text-anchor="middle" font-family="monospace" font-size="10" fill="#334155">18</text><circle cx="552.4" cy="140.9" r="4" fill="#0f766e" /><text x="552.4" y="252" text-anchor="middle" font-family="monospace" font-size="10" fill="#334155">19</text><circle cx="579.2" cy="140.9" r="4" fill="#0f766e" /><text x="579.2" y="252" text-anchor="middle" font-family="monospace" font-size="10" fill="#334155">20</text><circle cx="606.0" cy="140.9" r="4" fill="#0f766e" /><text x="606.0" y="252" text-anchor="middle" font-family="monospace" font-size="10" fill="#334155">21</text><circle cx="632.8" cy="202.3" r="4" fill="#0f766e" /><text x="632.8" y="252" text-anchor="middle" font-family="monospace" font-size="10" fill="#334155">22</text><circle cx="659.6" cy="202.3" r="4" fill="#0f766e" /><text x="659.6" y="252" text-anchor="middle" font-family="monospace" font-size="10" fill="#334155">23</text><circle cx="686.4" cy="202.3" r="4" fill="#0f766e" /><text x="686.4" y="252" text-anchor="middle" font-family="monospace" font-size="10" fill="#334155">24</text><circle cx="713.2" cy="202.3" r="4" fill="#0f766e" /><text x="713.2" y="252" text-anchor="middle" font-family="monospace" font-size="10" fill="#334155">25</text><circle cx="740.0" cy="202.3" r="4" fill="#0f766e" /><text x="740.0" y="252" text-anchor="middle" font-family="monospace" font-size="10" fill="#334155">26</text><text x="380.0" y="272" text-anchor="middle" font-family="monospace" font-size="11" fill="#334155">Run Number</text><text x="16" y="140.0" text-anchor="middle" font-family="monospace" font-size="11" fill="#334155" transform="rotate(-90 16 140.0)">Score</text></svg>
