<svg xmlns="http://www.w3.org/2000/svg" width="760" height="240" viewBox="0 0 760 240"><rect width="100%" height="100%" fill="#f8fafc" /><text x="20" y="24" font-family="monospace" font-size="16" fill="#0f172a">Best Run History (lower is better)</text><line x1="30" y1="210" x2="730" y2="210" stroke="#94a3b8" /><line x1="30" y1="30" x2="30" y2="210" stroke="#94a3b8" /><polyline fill="none" stroke="#0f766e" stroke-width="3" points="30.0,30.0 107.8,104.3 185.6,105.7 263.3,120.8 341.1,124.3 418.9,129.9 496.7,136.4 574.4,166.4 652.2,179.0 730.0,210.0" /><circle cx="30.0" cy="30.0" r="4" fill="#0f766e" /><text x="30.0" y="230" text-anchor="middle" font-family="monospace" font-size="10">0008</text><circle cx="107.8" cy="104.3" r="4" fill="#0f766e" /><text x="107.8" y="230" text-anchor="middle" font-family="monospace" font-size="10">0003</text><circle cx="185.6" cy="105.7" r="4" fill="#0f766e" /><text x="185.6" y="230" text-anchor="middle" font-family="monospace" font-size="10">0009</text><circle cx="263.3" cy="120.8" r="4" fill="#0f766e" /><text x="263.3" y="230" text-anchor="middle" font-family="monospace" font-size="10">0002</text><circle cx="341.1" cy="124.3" r="4" fill="#0f766e" /><text x="341.1" y="230" text-anchor="middle" font-family="monospace" font-size="10">0004</text><circle cx="418.9" cy="129.9" r="4" fill="#0f766e" /><text x="418.9" y="230" text-anchor="middle" font-family="monospace" font-size="10">0001</text><circle cx="496.7" cy="136.4" r="4" fill="#0f766e" /><text x="496.7" y="230" text-anchor="middle" font-family="monospace" font-size="10">0001</text><circle cx="574.4" cy="166.4" r="4" fill="#0f766e" /><text x="574.4" y="230" text-anchor="middle" font-family="monospace" font-size="10">0007</text><circle cx="652.2" cy="179.0" r="4" fill="#0f766e" /><text x="652.2" y="230" text-anchor="middle" font-family="monospace" font-size="10">0005</text><circle cx="730.0" cy="210.0" r="4" fill="#0f766e" /><text x="730.0" y="230" text-anchor="middle" font-family="monospace" font-size="10">0006</text><text x="30" y="22" font-family="monospace" font-size="10">2.2956</text><text x="30" y="226" font-family="monospace" font-size="10">2.2935</text></svg>
