<svg xmlns="http://www.w3.org/2000/svg" width="760" height="240" viewBox="0 0 760 240"><rect width="100%" height="100%" fill="#f8fafc" /><text x="20" y="24" font-family="monospace" font-size="16" fill="#0f172a">Best Run History (lower is better)</text><line x1="30" y1="210" x2="730" y2="210" stroke="#94a3b8" /><line x1="30" y1="30" x2="30" y2="210" stroke="#94a3b8" /><polyline fill="none" stroke="#0f766e" stroke-width="3" points="30.0,30.0 146.7,58.2 263.3,64.1 380.0,73.6 496.7,84.7 613.3,157.3 730.0,210.0" /><circle cx="30.0" cy="30.0" r="4" fill="#0f766e" /><text x="30.0" y="230" text-anchor="middle" font-family="monospace" font-size="10">0003</text><circle cx="146.7" cy="58.2" r="4" fill="#0f766e" /><text x="146.7" y="230" text-anchor="middle" font-family="monospace" font-size="10">0002</text><circle cx="263.3" cy="64.1" r="4" fill="#0f766e" /><text x="263.3" y="230" text-anchor="middle" font-family="monospace" font-size="10">0004</text><circle cx="380.0" cy="73.6" r="4" fill="#0f766e" /><text x="380.0" y="230" text-anchor="middle" font-family="monospace" font-size="10">0001</text><circle cx="496.7" cy="84.7" r="4" fill="#0f766e" /><text x="496.7" y="230" text-anchor="middle" font-family="monospace" font-size="10">0001</text><circle cx="613.3" cy="157.3" r="4" fill="#0f766e" /><text x="613.3" y="230" text-anchor="middle" font-family="monospace" font-size="10">0005</text><circle cx="730.0" cy="210.0" r="4" fill="#0f766e" /><text x="730.0" y="230" text-anchor="middle" font-family="monospace" font-size="10">0006</text><text x="30" y="22" font-family="monospace" font-size="10">2.2947</text><text x="30" y="226" font-family="monospace" font-size="10">2.2935</text></svg>
