<svg xmlns="http://www.w3.org/2000/svg" width="760" height="280" viewBox="0 0 760 280"><rect width="100%" height="100%" fill="#f8fafc" /><text x="20" y="24" font-family="monospace" font-size="16" fill="#0f172a">Cumulative Best Score By Run (lower is better)</text><line x1="70" y1="36.0" x2="740" y2="36.0" stroke="#e2e8f0" /><text x="62" y="40.0" text-anchor="end" font-family="monospace" font-size="10" fill="#475569">10.1498</text><line x1="70" y1="83.0" x2="740" y2="83.0" stroke="#e2e8f0" /><text x="62" y="87.0" text-anchor="end" font-family="monospace" font-size="10" fill="#475569">8.2304</text><line x1="70" y1="130.0" x2="740" y2="130.0" stroke="#e2e8f0" /><text x="62" y="134.0" text-anchor="end" font-family="monospace" font-size="10" fill="#475569">6.3110</text><line x1="70" y1="177.0" x2="740" y2="177.0" stroke="#e2e8f0" /><text x="62" y="181.0" text-anchor="end" font-family="monospace" font-size="10" fill="#475569">4.3916</text><line x1="70" y1="224.0" x2="740" y2="224.0" stroke="#e2e8f0" /><text x="62" y="228.0" text-anchor="end" font-family="monospace" font-size="10" fill="#475569">2.4722</text><line x1="70" y1="224" x2="740" y2="224" stroke="#94a3b8" /><line x1="70" y1="36" x2="70" y2="224" stroke="#94a3b8" /><polyline fill="none" stroke="#0f766e" stroke-width="3" points="70.0,57.7 99.1,57.8 128.3,57.8 157.4,57.8 186.5,57.9 215.7,58.0 244.8,58.0 273.9,58.0 303.0,58.0 332.2,58.0 361.3,58.0 390.4,87.0 419.6,140.9 448.7,140.9 477.8,140.9 507.0,140.9 536.1,140.9 565.2,140.9 594.3,140.9 623.5,140.9 652.6,140.9 681.7,202.3 710.9,202.3 740.0,202.3" /><circle cx="70.0" cy="57.7" r="4" fill="#0f766e" /><text x="70.0" y="252" text-anchor="middle" font-family="monospace" font-size="10" fill="#334155">1</text><circle cx="99.1" cy="57.8" r="4" fill="#0f766e" /><text x="99.1" y="252" text-anchor="middle" font-family="monospace" font-size="10" fill="#334155">2</text><circle cx="128.3" cy="57.8" r="4" fill="#0f766e" /><text x="128.3" y="252" text-anchor="middle" font-family="monospace" font-size="10" fill="#334155">3</text><circle cx="157.4" cy="57.8" r="4" fill="#0f766e" /><text x="157.4" y="252" text-anchor="middle" font-family="monospace" font-size="10" fill="#334155">4</text><circle cx="186.5" cy="57.9" r="4" fill="#0f766e" /><text x="186.5" y="252" text-anchor="middle" font-family="monospace" font-size="10" fill="#334155">5</text><circle cx="215.7" cy="58.0" r="4" fill="#0f766e" /><text x="215.7" y="252" text-anchor="middle" font-family="monospace" font-size="10" fill="#334155">6</text><circle cx="244.8" cy="58.0" r="4" fill="#0f766e" /><text x="244.8" y="252" text-anchor="middle" font-family="monospace" font-size="10" fill="#334155">7</text><circle cx="273.9" cy="58.0" r="4" fill="#0f766e" /><text x="273.9" y="252" text-anchor="middle" font-family="monospace" font-size="10" fill="#334155">8</text><circle cx="303.0" cy="58.0" r="4" fill="#0f766e" /><text x="303.0" y="252" text-anchor="middle" font-family="monospace" font-size="10" fill="#334155">9</text><circle cx="332.2" cy="58.0" r="4" fill="#0f766e" /><text x="332.2" y="252" text-anchor="middle" font-family="monospace" font-size="10" fill="#334155">10</text><circle cx="361.3" cy="58.0" r="4" fill="#0f766e" /><text x="361.3" y="252" text-anchor="middle" font-family="monospace" font-size="10" fill="#334155">11</text><circle cx="390.4" cy="87.0" r="4" fill="#0f766e" /><text x="390.4" y="252" text-anchor="middle" font-family="monospace" font-size="10" fill="#334155">12</text><circle cx="419.6" cy="140.9" r="4" fill="#0f766e" /><text x="419.6" y="252" text-anchor="middle" font-family="monospace" font-size="10" fill="#334155">13</text><circle cx="448.7" cy="140.9" r="4" fill="#0f766e" /><text x="448.7" y="252" text-anchor="middle" font-family="monospace" font-size="10" fill="#334155">14</text><circle cx="477.8" cy="140.9" r="4" fill="#0f766e" /><text x="477.8" y="252" text-anchor="middle" font-family="monospace" font-size="10" fill="#334155">15</text><circle cx="507.0" cy="140.9" r="4" fill="#0f766e" /><text x="507.0" y="252" text-anchor="middle" font-family="monospace" font-size="10" fill="#334155">16</text><circle cx="536.1" cy="140.9" r="4" fill="#0f766e" /><text x="536.1" y="252" text-anchor="middle" font-family="monospace" font-size="10" fill="#334155">17</text><circle cx="565.2" cy="140.9" r="4" fill="#0f766e" /><text x="565.2" y="252" text-anchor="middle" font-family="monospace" font-size="10" fill="#334155">18</text><circle cx="594.3" cy="140.9" r="4" fill="#0f766e" /><text x="594.3" y="252" text-anchor="middle" font-family="monospace" font-size="10" fill="#334155">19</text><circle cx="623.5" cy="140.9" r="4" fill="#0f766e" /><text x="623.5" y="252" text-anchor="middle" font-family="monospace" font-size="10" fill="#334155">20</text><circle cx="652.6" cy="140.9" r="4" fill="#0f766e" /><text x="652.6" y="252" text-anchor="middle" font-family="monospace" font-size="10" fill="#334155">21</text><circle cx="681.7" cy="202.3" r="4" fill="#0f766e" /><text x="681.7" y="252" text-anchor="middle" font-family="monospace" font-size="10" fill="#334155">22</text><circle cx="710.9" cy="202.3" r="4" fill="#0f766e" /><text x="710.9" y="252" text-anchor="middle" font-family="monospace" font-size="10" fill="#334155">23</text><circle cx="740.0" cy="202.3" r="4" fill="#0f766e" /><text x="740.0" y="252" text-anchor="middle" font-family="monospace" font-size="10" fill="#334155">24</text><text x="380.0" y="272" text-anchor="middle" font-family="monospace" font-size="11" fill="#334155">Run Number</text><text x="16" y="140.0" text-anchor="middle" font-family="monospace" font-size="11" fill="#334155" transform="rotate(-90 16 140.0)">Score</text></svg>
