<svg xmlns="http://www.w3.org/2000/svg" width="760" height="280" viewBox="0 0 760 280"><rect width="100%" height="100%" fill="#f8fafc" /><text x="20" y="24" font-family="monospace" font-size="16" fill="#0f172a">Best Runs Over Time (lower is better)</text><line x1="70" y1="36.0" x2="740" y2="36.0" stroke="#e2e8f0" /><text x="62" y="40.0" text-anchor="end" font-family="monospace" font-size="10" fill="#475569">2.2955</text><line x1="70" y1="83.0" x2="740" y2="83.0" stroke="#e2e8f0" /><text x="62" y="87.0" text-anchor="end" font-family="monospace" font-size="10" fill="#475569">2.2945</text><line x1="70" y1="130.0" x2="740" y2="130.0" stroke="#e2e8f0" /><text x="62" y="134.0" text-anchor="end" font-family="monospace" font-size="10" fill="#475569">2.2934</text><line x1="70" y1="177.0" x2="740" y2="177.0" stroke="#e2e8f0" /><text x="62" y="181.0" text-anchor="end" font-family="monospace" font-size="10" fill="#475569">2.2924</text><line x1="70" y1="224.0" x2="740" y2="224.0" stroke="#e2e8f0" /><text x="62" y="228.0" text-anchor="end" font-family="monospace" font-size="10" fill="#475569">2.2913</text><line x1="70" y1="224" x2="740" y2="224" stroke="#94a3b8" /><line x1="70" y1="36" x2="70" y2="224" stroke="#94a3b8" /><polyline fill="none" stroke="#0f766e" stroke-width="3" points="70.0,85.1 144.4,88.5 218.9,82.1 293.3,110.9 367.8,127.2 442.2,104.3 516.7,179.1 591.1,109.9 665.6,102.5 740.0,80.9" /><circle cx="70.0" cy="85.1" r="4" fill="#0f766e" /><text x="70.0" y="252" text-anchor="middle" font-family="monospace" font-size="10" fill="#334155">0001</text><circle cx="144.4" cy="88.5" r="4" fill="#0f766e" /><text x="144.4" y="252" text-anchor="middle" font-family="monospace" font-size="10" fill="#334155">0001</text><circle cx="218.9" cy="82.1" r="4" fill="#0f766e" /><text x="218.9" y="252" text-anchor="middle" font-family="monospace" font-size="10" fill="#334155">0004</text><circle cx="293.3" cy="110.9" r="4" fill="#0f766e" /><text x="293.3" y="252" text-anchor="middle" font-family="monospace" font-size="10" fill="#334155">0005</text><circle cx="367.8" cy="127.2" r="4" fill="#0f766e" /><text x="367.8" y="252" text-anchor="middle" font-family="monospace" font-size="10" fill="#334155">0006</text><circle cx="442.2" cy="104.3" r="4" fill="#0f766e" /><text x="442.2" y="252" text-anchor="middle" font-family="monospace" font-size="10" fill="#334155">0007</text><circle cx="516.7" cy="179.1" r="4" fill="#0f766e" /><text x="516.7" y="252" text-anchor="middle" font-family="monospace" font-size="10" fill="#334155">0010</text><circle cx="591.1" cy="109.9" r="4" fill="#0f766e" /><text x="591.1" y="252" text-anchor="middle" font-family="monospace" font-size="10" fill="#334155">0011</text><circle cx="665.6" cy="102.5" r="4" fill="#0f766e" /><text x="665.6" y="252" text-anchor="middle" font-family="monospace" font-size="10" fill="#334155">0013</text><circle cx="740.0" cy="80.9" r="4" fill="#0f766e" /><text x="740.0" y="252" text-anchor="middle" font-family="monospace" font-size="10" fill="#334155">0014</text><text x="380.0" y="272" text-anchor="middle" font-family="monospace" font-size="11" fill="#334155">Run Number</text><text x="16" y="140.0" text-anchor="middle" font-family="monospace" font-size="11" fill="#334155" transform="rotate(-90 16 140.0)">Score</text></svg>
