<svg xmlns="http://www.w3.org/2000/svg" width="760" height="280" viewBox="0 0 760 280"><rect width="100%" height="100%" fill="#f8fafc" /><text x="20" y="24" font-family="monospace" font-size="16" fill="#0f172a">Cumulative Best Score By Run (lower is better)</text><line x1="70" y1="36.0" x2="740" y2="36.0" stroke="#e2e8f0" /><text x="62" y="40.0" text-anchor="end" font-family="monospace" font-size="10" fill="#475569">9.7737</text><line x1="70" y1="83.0" x2="740" y2="83.0" stroke="#e2e8f0" /><text x="62" y="87.0" text-anchor="end" font-family="monospace" font-size="10" fill="#475569">8.6692</text><line x1="70" y1="130.0" x2="740" y2="130.0" stroke="#e2e8f0" /><text x="62" y="134.0" text-anchor="end" font-family="monospace" font-size="10" fill="#475569">7.5647</text><line x1="70" y1="177.0" x2="740" y2="177.0" stroke="#e2e8f0" /><text x="62" y="181.0" text-anchor="end" font-family="monospace" font-size="10" fill="#475569">6.4603</text><line x1="70" y1="224.0" x2="740" y2="224.0" stroke="#e2e8f0" /><text x="62" y="228.0" text-anchor="end" font-family="monospace" font-size="10" fill="#475569">5.3558</text><line x1="70" y1="224" x2="740" y2="224" stroke="#94a3b8" /><line x1="70" y1="36" x2="70" y2="224" stroke="#94a3b8" /><polyline fill="none" stroke="#0f766e" stroke-width="3" points="70.0,57.7 111.9,57.9 153.8,57.9 195.6,57.9 237.5,58.1 279.4,58.3 321.2,58.3 363.1,58.3 405.0,58.3 446.9,58.3 488.8,58.3 530.6,108.6 572.5,202.3 614.4,202.3 656.2,202.3 698.1,202.3 740.0,202.3" /><circle cx="70.0" cy="57.7" r="4" fill="#0f766e" /><text x="70.0" y="252" text-anchor="middle" font-family="monospace" font-size="10" fill="#334155">1</text><circle cx="111.9" cy="57.9" r="4" fill="#0f766e" /><text x="111.9" y="252" text-anchor="middle" font-family="monospace" font-size="10" fill="#334155">2</text><circle cx="153.8" cy="57.9" r="4" fill="#0f766e" /><text x="153.8" y="252" text-anchor="middle" font-family="monospace" font-size="10" fill="#334155">3</text><circle cx="195.6" cy="57.9" r="4" fill="#0f766e" /><text x="195.6" y="252" text-anchor="middle" font-family="monospace" font-size="10" fill="#334155">4</text><circle cx="237.5" cy="58.1" r="4" fill="#0f766e" /><text x="237.5" y="252" text-anchor="middle" font-family="monospace" font-size="10" fill="#334155">5</text><circle cx="279.4" cy="58.3" r="4" fill="#0f766e" /><text x="279.4" y="252" text-anchor="middle" font-family="monospace" font-size="10" fill="#334155">6</text><circle cx="321.2" cy="58.3" r="4" fill="#0f766e" /><text x="321.2" y="252" text-anchor="middle" font-family="monospace" font-size="10" fill="#334155">7</text><circle cx="363.1" cy="58.3" r="4" fill="#0f766e" /><text x="363.1" y="252" text-anchor="middle" font-family="monospace" font-size="10" fill="#334155">8</text><circle cx="405.0" cy="58.3" r="4" fill="#0f766e" /><text x="405.0" y="252" text-anchor="middle" font-family="monospace" font-size="10" fill="#334155">9</text><circle cx="446.9" cy="58.3" r="4" fill="#0f766e" /><text x="446.9" y="252" text-anchor="middle" font-family="monospace" font-size="10" fill="#334155">10</text><circle cx="488.8" cy="58.3" r="4" fill="#0f766e" /><text x="488.8" y="252" text-anchor="middle" font-family="monospace" font-size="10" fill="#334155">11</text><circle cx="530.6" cy="108.6" r="4" fill="#0f766e" /><text x="530.6" y="252" text-anchor="middle" font-family="monospace" font-size="10" fill="#334155">12</text><circle cx="572.5" cy="202.3" r="4" fill="#0f766e" /><text x="572.5" y="252" text-anchor="middle" font-family="monospace" font-size="10" fill="#334155">13</text><circle cx="614.4" cy="202.3" r="4" fill="#0f766e" /><text x="614.4" y="252" text-anchor="middle" font-family="monospace" font-size="10" fill="#334155">14</text><circle cx="656.2" cy="202.3" r="4" fill="#0f766e" /><text x="656.2" y="252" text-anchor="middle" font-family="monospace" font-size="10" fill="#334155">15</text><circle cx="698.1" cy="202.3" r="4" fill="#0f766e" /><text x="698.1" y="252" text-anchor="middle" font-family="monospace" font-size="10" fill="#334155">16</text><circle cx="740.0" cy="202.3" r="4" fill="#0f766e" /><text x="740.0" y="252" text-anchor="middle" font-family="monospace" font-size="10" fill="#334155">17</text><text x="380.0" y="272" text-anchor="middle" font-family="monospace" font-size="11" fill="#334155">Run Number</text><text x="16" y="140.0" text-anchor="middle" font-family="monospace" font-size="11" fill="#334155" transform="rotate(-90 16 140.0)">Score</text></svg>
