<svg xmlns="http://www.w3.org/2000/svg" width="760" height="280" viewBox="0 0 760 280"><rect width="100%" height="100%" fill="#f8fafc" /><text x="20" y="24" font-family="monospace" font-size="16" fill="#0f172a">Cumulative Best Score By Run (lower is better)</text><line x1="70" y1="36.0" x2="740" y2="36.0" stroke="#e2e8f0" /><text x="62" y="40.0" text-anchor="end" font-family="monospace" font-size="10" fill="#475569">10.1498</text><line x1="70" y1="83.0" x2="740" y2="83.0" stroke="#e2e8f0" /><text x="62" y="87.0" text-anchor="end" font-family="monospace" font-size="10" fill="#475569">8.2304</text><line x1="70" y1="130.0" x2="740" y2="130.0" stroke="#e2e8f0" /><text x="62" y="134.0" text-anchor="end" font-family="monospace" font-size="10" fill="#475569">6.3110</text><line x1="70" y1="177.0" x2="740" y2="177.0" stroke="#e2e8f0" /><text x="62" y="181.0" text-anchor="end" font-family="monospace" font-size="10" fill="#475569">4.3916</text><line x1="70" y1="224.0" x2="740" y2="224.0" stroke="#e2e8f0" /><text x="62" y="228.0" text-anchor="end" font-family="monospace" font-size="10" fill="#475569">2.4722</text><line x1="70" y1="224" x2="740" y2="224" stroke="#94a3b8" /><line x1="70" y1="36" x2="70" y2="224" stroke="#94a3b8" /><polyline fill="none" stroke="#0f766e" stroke-width="3" points="70.0,57.7 100.5,57.8 130.9,57.8 161.4,57.8 191.8,57.9 222.3,58.0 252.7,58.0 283.2,58.0 313.6,58.0 344.1,58.0 374.5,58.0 405.0,87.0 435.5,140.9 465.9,140.9 496.4,140.9 526.8,140.9 557.3,140.9 587.7,140.9 618.2,140.9 648.6,140.9 679.1,140.9 709.5,202.3 740.0,202.3" /><circle cx="70.0" cy="57.7" r="4" fill="#0f766e" /><text x="70.0" y="252" text-anchor="middle" font-family="monospace" font-size="10" fill="#334155">1</text><circle cx="100.5" cy="57.8" r="4" fill="#0f766e" /><text x="100.5" y="252" text-anchor="middle" font-family="monospace" font-size="10" fill="#334155">2</text><circle cx="130.9" cy="57.8" r="4" fill="#0f766e" /><text x="130.9" y="252" text-anchor="middle" font-family="monospace" font-size="10" fill="#334155">3</text><circle cx="161.4" cy="57.8" r="4" fill="#0f766e" /><text x="161.4" y="252" text-anchor="middle" font-family="monospace" font-size="10" fill="#334155">4</text><circle cx="191.8" cy="57.9" r="4" fill="#0f766e" /><text x="191.8" y="252" text-anchor="middle" font-family="monospace" font-size="10" fill="#334155">5</text><circle cx="222.3" cy="58.0" r="4" fill="#0f766e" /><text x="222.3" y="252" text-anchor="middle" font-family="monospace" font-size="10" fill="#334155">6</text><circle cx="252.7" cy="58.0" r="4" fill="#0f766e" /><text x="252.7" y="252" text-anchor="middle" font-family="monospace" font-size="10" fill="#334155">7</text><circle cx="283.2" cy="58.0" r="4" fill="#0f766e" /><text x="283.2" y="252" text-anchor="middle" font-family="monospace" font-size="10" fill="#334155">8</text><circle cx="313.6" cy="58.0" r="4" fill="#0f766e" /><text x="313.6" y="252" text-anchor="middle" font-family="monospace" font-size="10" fill="#334155">9</text><circle cx="344.1" cy="58.0" r="4" fill="#0f766e" /><text x="344.1" y="252" text-anchor="middle" font-family="monospace" font-size="10" fill="#334155">10</text><circle cx="374.5" cy="58.0" r="4" fill="#0f766e" /><text x="374.5" y="252" text-anchor="middle" font-family="monospace" font-size="10" fill="#334155">11</text><circle cx="405.0" cy="87.0" r="4" fill="#0f766e" /><text x="405.0" y="252" text-anchor="middle" font-family="monospace" font-size="10" fill="#334155">12</text><circle cx="435.5" cy="140.9" r="4" fill="#0f766e" /><text x="435.5" y="252" text-anchor="middle" font-family="monospace" font-size="10" fill="#334155">13</text><circle cx="465.9" cy="140.9" r="4" fill="#0f766e" /><text x="465.9" y="252" text-anchor="middle" font-family="monospace" font-size="10" fill="#334155">14</text><circle cx="496.4" cy="140.9" r="4" fill="#0f766e" /><text x="496.4" y="252" text-anchor="middle" font-family="monospace" font-size="10" fill="#334155">15</text><circle cx="526.8" cy="140.9" r="4" fill="#0f766e" /><text x="526.8" y="252" text-anchor="middle" font-family="monospace" font-size="10" fill="#334155">16</text><circle cx="557.3" cy="140.9" r="4" fill="#0f766e" /><text x="557.3" y="252" text-anchor="middle" font-family="monospace" font-size="10" fill="#334155">17</text><circle cx="587.7" cy="140.9" r="4" fill="#0f766e" /><text x="587.7" y="252" text-anchor="middle" font-family="monospace" font-size="10" fill="#334155">18</text><circle cx="618.2" cy="140.9" r="4" fill="#0f766e" /><text x="618.2" y="252" text-anchor="middle" font-family="monospace" font-size="10" fill="#334155">19</text><circle cx="648.6" cy="140.9" r="4" fill="#0f766e" /><text x="648.6" y="252" text-anchor="middle" font-family="monospace" font-size="10" fill="#334155">20</text><circle cx="679.1" cy="140.9" r="4" fill="#0f766e" /><text x="679.1" y="252" text-anchor="middle" font-family="monospace" font-size="10" fill="#334155">21</text><circle cx="709.5" cy="202.3" r="4" fill="#0f766e" /><text x="709.5" y="252" text-anchor="middle" font-family="monospace" font-size="10" fill="#334155">22</text><circle cx="740.0" cy="202.3" r="4" fill="#0f766e" /><text x="740.0" y="252" text-anchor="middle" font-family="monospace" font-size="10" fill="#334155">23</text><text x="380.0" y="272" text-anchor="middle" font-family="monospace" font-size="11" fill="#334155">Run Number</text><text x="16" y="140.0" text-anchor="middle" font-family="monospace" font-size="11" fill="#334155" transform="rotate(-90 16 140.0)">Score</text></svg>
