<svg xmlns="http://www.w3.org/2000/svg" width="760" height="280"><rect width="100%" height="100%" fill="#f8fafc"/><text x="20" y="24" font-family="monospace" font-size="16">Best Score By Run</text><line x1="70" y1="36.0" x2="740" y2="36.0" stroke="#e2e8f0"/><text x="62" y="40.0" text-anchor="end" font-family="monospace" font-size="10" fill="#475569">2.3248</text><line x1="70" y1="83.0" x2="740" y2="83.0" stroke="#e2e8f0"/><text x="62" y="87.0" text-anchor="end" font-family="monospace" font-size="10" fill="#475569">2.1127</text><line x1="70" y1="130.0" x2="740" y2="130.0" stroke="#e2e8f0"/><text x="62" y="134.0" text-anchor="end" font-family="monospace" font-size="10" fill="#475569">1.9006</text><line x1="70" y1="177.0" x2="740" y2="177.0" stroke="#e2e8f0"/><text x="62" y="181.0" text-anchor="end" font-family="monospace" font-size="10" fill="#475569">1.6884</text><line x1="70" y1="224.0" x2="740" y2="224.0" stroke="#e2e8f0"/><text x="62" y="228.0" text-anchor="end" font-family="monospace" font-size="10" fill="#475569">1.4763</text><polyline fill="none" stroke="#0f766e" stroke-width="3" points="70.0,57.7 153.8,188.8 237.5,189.0 321.2,190.4 405.0,190.6 488.8,200.3 572.5,201.2 656.2,202.0 740.0,202.3"/><circle cx="70.0" cy="57.7" r="4" fill="#0f766e"/><text x="70.0" y="252" text-anchor="middle" font-family="monospace" font-size="10">0001</text><circle cx="153.8" cy="188.8" r="4" fill="#0f766e"/><text x="153.8" y="252" text-anchor="middle" font-family="monospace" font-size="10">0002</text><circle cx="237.5" cy="189.0" r="4" fill="#0f766e"/><text x="237.5" y="252" text-anchor="middle" font-family="monospace" font-size="10">0003</text><circle cx="321.2" cy="190.4" r="4" fill="#0f766e"/><text x="321.2" y="252" text-anchor="middle" font-family="monospace" font-size="10">0004</text><circle cx="405.0" cy="190.6" r="4" fill="#0f766e"/><text x="405.0" y="252" text-anchor="middle" font-family="monospace" font-size="10">0006</text><circle cx="488.8" cy="200.3" r="4" fill="#0f766e"/><text x="488.8" y="252" text-anchor="middle" font-family="monospace" font-size="10">0008</text><circle cx="572.5" cy="201.2" r="4" fill="#0f766e"/><text x="572.5" y="252" text-anchor="middle" font-family="monospace" font-size="10">0018</text><circle cx="656.2" cy="202.0" r="4" fill="#0f766e"/><text x="656.2" y="252" text-anchor="middle" font-family="monospace" font-size="10">0025</text><circle cx="740.0" cy="202.3" r="4" fill="#0f766e"/><text x="740.0" y="252" text-anchor="middle" font-family="monospace" font-size="10">0026</text></svg>
