<svg xmlns="http://www.w3.org/2000/svg" width="760" height="280"><rect width="100%" height="100%" fill="#f8fafc"/><text x="20" y="24" font-family="monospace" font-size="16">Best Score By Run</text><line x1="70" y1="36.0" x2="740" y2="36.0" stroke="#e2e8f0"/><text x="62" y="40.0" text-anchor="end" font-family="monospace" font-size="10" fill="#475569">2.3336</text><line x1="70" y1="83.0" x2="740" y2="83.0" stroke="#e2e8f0"/><text x="62" y="87.0" text-anchor="end" font-family="monospace" font-size="10" fill="#475569">2.1024</text><line x1="70" y1="130.0" x2="740" y2="130.0" stroke="#e2e8f0"/><text x="62" y="134.0" text-anchor="end" font-family="monospace" font-size="10" fill="#475569">1.8713</text><line x1="70" y1="177.0" x2="740" y2="177.0" stroke="#e2e8f0"/><text x="62" y="181.0" text-anchor="end" font-family="monospace" font-size="10" fill="#475569">1.6401</text><line x1="70" y1="224.0" x2="740" y2="224.0" stroke="#e2e8f0"/><text x="62" y="228.0" text-anchor="end" font-family="monospace" font-size="10" fill="#475569">1.4089</text><polyline fill="none" stroke="#0f766e" stroke-width="3" points="70.0,57.7 92.3,178.0 114.7,178.2 137.0,179.4 159.3,179.7 181.7,188.5 204.0,189.4 226.3,190.1 248.7,190.4 271.0,191.8 293.3,192.2 315.7,193.4 338.0,194.1 360.3,195.7 382.7,196.8 405.0,196.8 427.3,197.3 449.7,198.5 472.0,199.4 494.3,200.9 516.7,201.2 539.0,201.3 561.3,201.4 583.7,201.5 606.0,201.8 628.3,201.8 650.7,201.9 673.0,202.1 695.3,202.1 717.7,202.1 740.0,202.3"/><circle cx="70.0" cy="57.7" r="4" fill="#0f766e"/><text x="70.0" y="252" text-anchor="middle" font-family="monospace" font-size="10">0001</text><circle cx="92.3" cy="178.0" r="4" fill="#0f766e"/><text x="92.3" y="252" text-anchor="middle" font-family="monospace" font-size="10">0002</text><circle cx="114.7" cy="178.2" r="4" fill="#0f766e"/><text x="114.7" y="252" text-anchor="middle" font-family="monospace" font-size="10">0003</text><circle cx="137.0" cy="179.4" r="4" fill="#0f766e"/><text x="137.0" y="252" text-anchor="middle" font-family="monospace" font-size="10">0004</text><circle cx="159.3" cy="179.7" r="4" fill="#0f766e"/><text x="159.3" y="252" text-anchor="middle" font-family="monospace" font-size="10">0006</text><circle cx="181.7" cy="188.5" r="4" fill="#0f766e"/><text x="181.7" y="252" text-anchor="middle" font-family="monospace" font-size="10">0008</text><circle cx="204.0" cy="189.4" r="4" fill="#0f766e"/><text x="204.0" y="252" text-anchor="middle" font-family="monospace" font-size="10">0018</text><circle cx="226.3" cy="190.1" r="4" fill="#0f766e"/><text x="226.3" y="252" text-anchor="middle" font-family="monospace" font-size="10">0025</text><circle cx="248.7" cy="190.4" r="4" fill="#0f766e"/><text x="248.7" y="252" text-anchor="middle" font-family="monospace" font-size="10">0026</text><circle cx="271.0" cy="191.8" r="4" fill="#0f766e"/><text x="271.0" y="252" text-anchor="middle" font-family="monospace" font-size="10">0033</text><circle cx="293.3" cy="192.2" r="4" fill="#0f766e"/><text x="293.3" y="252" text-anchor="middle" font-family="monospace" font-size="10">0053</text><circle cx="315.7" cy="193.4" r="4" fill="#0f766e"/><text x="315.7" y="252" text-anchor="middle" font-family="monospace" font-size="10">0008</text><circle cx="338.0" cy="194.1" r="4" fill="#0f766e"/><text x="338.0" y="252" text-anchor="middle" font-family="monospace" font-size="10">0009</text><circle cx="360.3" cy="195.7" r="4" fill="#0f766e"/><text x="360.3" y="252" text-anchor="middle" font-family="monospace" font-size="10">0010</text><circle cx="382.7" cy="196.8" r="4" fill="#0f766e"/><text x="382.7" y="252" text-anchor="middle" font-family="monospace" font-size="10">0011</text><circle cx="405.0" cy="196.8" r="4" fill="#0f766e"/><text x="405.0" y="252" text-anchor="middle" font-family="monospace" font-size="10">0008</text><circle cx="427.3" cy="197.3" r="4" fill="#0f766e"/><text x="427.3" y="252" text-anchor="middle" font-family="monospace" font-size="10">0016</text><circle cx="449.7" cy="198.5" r="4" fill="#0f766e"/><text x="449.7" y="252" text-anchor="middle" font-family="monospace" font-size="10">0017</text><circle cx="472.0" cy="199.4" r="4" fill="#0f766e"/><text x="472.0" y="252" text-anchor="middle" font-family="monospace" font-size="10">0025</text><circle cx="494.3" cy="200.9" r="4" fill="#0f766e"/><text x="494.3" y="252" text-anchor="middle" font-family="monospace" font-size="10">0026</text><circle cx="516.7" cy="201.2" r="4" fill="#0f766e"/><text x="516.7" y="252" text-anchor="middle" font-family="monospace" font-size="10">0028</text><circle cx="539.0" cy="201.3" r="4" fill="#0f766e"/><text x="539.0" y="252" text-anchor="middle" font-family="monospace" font-size="10">0034</text><circle cx="561.3" cy="201.4" r="4" fill="#0f766e"/><text x="561.3" y="252" text-anchor="middle" font-family="monospace" font-size="10">0041</text><circle cx="583.7" cy="201.5" r="4" fill="#0f766e"/><text x="583.7" y="252" text-anchor="middle" font-family="monospace" font-size="10">0032</text><circle cx="606.0" cy="201.8" r="4" fill="#0f766e"/><text x="606.0" y="252" text-anchor="middle" font-family="monospace" font-size="10">0049</text><circle cx="628.3" cy="201.8" r="4" fill="#0f766e"/><text x="628.3" y="252" text-anchor="middle" font-family="monospace" font-size="10">0050</text><circle cx="650.7" cy="201.9" r="4" fill="#0f766e"/><text x="650.7" y="252" text-anchor="middle" font-family="monospace" font-size="10">0052</text><circle cx="673.0" cy="202.1" r="4" fill="#0f766e"/><text x="673.0" y="252" text-anchor="middle" font-family="monospace" font-size="10">0001</text><circle cx="695.3" cy="202.1" r="4" fill="#0f766e"/><text x="695.3" y="252" text-anchor="middle" font-family="monospace" font-size="10">0024</text><circle cx="717.7" cy="202.1" r="4" fill="#0f766e"/><text x="717.7" y="252" text-anchor="middle" font-family="monospace" font-size="10">0029</text><circle cx="740.0" cy="202.3" r="4" fill="#0f766e"/><text x="740.0" y="252" text-anchor="middle" font-family="monospace" font-size="10">0031</text></svg>
