<svg xmlns="http://www.w3.org/2000/svg" width="760" height="280"><rect width="100%" height="100%" fill="#f8fafc"/><text x="20" y="24" font-family="monospace" font-size="16">Best Score By Run</text><line x1="70" y1="36.0" x2="740" y2="36.0" stroke="#e2e8f0"/><text x="62" y="40.0" text-anchor="end" font-family="monospace" font-size="10" fill="#475569">2.3259</text><line x1="70" y1="83.0" x2="740" y2="83.0" stroke="#e2e8f0"/><text x="62" y="87.0" text-anchor="end" font-family="monospace" font-size="10" fill="#475569">2.1115</text><line x1="70" y1="130.0" x2="740" y2="130.0" stroke="#e2e8f0"/><text x="62" y="134.0" text-anchor="end" font-family="monospace" font-size="10" fill="#475569">1.8971</text><line x1="70" y1="177.0" x2="740" y2="177.0" stroke="#e2e8f0"/><text x="62" y="181.0" text-anchor="end" font-family="monospace" font-size="10" fill="#475569">1.6827</text><line x1="70" y1="224.0" x2="740" y2="224.0" stroke="#e2e8f0"/><text x="62" y="228.0" text-anchor="end" font-family="monospace" font-size="10" fill="#475569">1.4682</text><polyline fill="none" stroke="#0f766e" stroke-width="3" points="70.0,57.7 144.4,187.4 218.9,187.6 293.3,188.9 367.8,189.2 442.2,198.8 516.7,199.7 591.1,200.5 665.6,200.8 740.0,202.3"/><circle cx="70.0" cy="57.7" r="4" fill="#0f766e"/><text x="70.0" y="252" text-anchor="middle" font-family="monospace" font-size="10">0001</text><circle cx="144.4" cy="187.4" r="4" fill="#0f766e"/><text x="144.4" y="252" text-anchor="middle" font-family="monospace" font-size="10">0002</text><circle cx="218.9" cy="187.6" r="4" fill="#0f766e"/><text x="218.9" y="252" text-anchor="middle" font-family="monospace" font-size="10">0003</text><circle cx="293.3" cy="188.9" r="4" fill="#0f766e"/><text x="293.3" y="252" text-anchor="middle" font-family="monospace" font-size="10">0004</text><circle cx="367.8" cy="189.2" r="4" fill="#0f766e"/><text x="367.8" y="252" text-anchor="middle" font-family="monospace" font-size="10">0006</text><circle cx="442.2" cy="198.8" r="4" fill="#0f766e"/><text x="442.2" y="252" text-anchor="middle" font-family="monospace" font-size="10">0008</text><circle cx="516.7" cy="199.7" r="4" fill="#0f766e"/><text x="516.7" y="252" text-anchor="middle" font-family="monospace" font-size="10">0018</text><circle cx="591.1" cy="200.5" r="4" fill="#0f766e"/><text x="591.1" y="252" text-anchor="middle" font-family="monospace" font-size="10">0025</text><circle cx="665.6" cy="200.8" r="4" fill="#0f766e"/><text x="665.6" y="252" text-anchor="middle" font-family="monospace" font-size="10">0026</text><circle cx="740.0" cy="202.3" r="4" fill="#0f766e"/><text x="740.0" y="252" text-anchor="middle" font-family="monospace" font-size="10">0033</text></svg>
