<svg xmlns="http://www.w3.org/2000/svg" width="760" height="280"><rect width="100%" height="100%" fill="#f8fafc"/><text x="20" y="24" font-family="monospace" font-size="16">Best Score By Run</text><line x1="70" y1="36.0" x2="740" y2="36.0" stroke="#e2e8f0"/><text x="62" y="40.0" text-anchor="end" font-family="monospace" font-size="10" fill="#475569">2.3246</text><line x1="70" y1="83.0" x2="740" y2="83.0" stroke="#e2e8f0"/><text x="62" y="87.0" text-anchor="end" font-family="monospace" font-size="10" fill="#475569">2.1129</text><line x1="70" y1="130.0" x2="740" y2="130.0" stroke="#e2e8f0"/><text x="62" y="134.0" text-anchor="end" font-family="monospace" font-size="10" fill="#475569">1.9013</text><line x1="70" y1="177.0" x2="740" y2="177.0" stroke="#e2e8f0"/><text x="62" y="181.0" text-anchor="end" font-family="monospace" font-size="10" fill="#475569">1.6896</text><line x1="70" y1="224.0" x2="740" y2="224.0" stroke="#e2e8f0"/><text x="62" y="228.0" text-anchor="end" font-family="monospace" font-size="10" fill="#475569">1.4780</text><polyline fill="none" stroke="#0f766e" stroke-width="3" points="70.0,57.7 165.7,189.1 261.4,189.3 357.1,190.6 452.9,190.9 548.6,200.6 644.3,201.5 740.0,202.3"/><circle cx="70.0" cy="57.7" r="4" fill="#0f766e"/><text x="70.0" y="252" text-anchor="middle" font-family="monospace" font-size="10">0001</text><circle cx="165.7" cy="189.1" r="4" fill="#0f766e"/><text x="165.7" y="252" text-anchor="middle" font-family="monospace" font-size="10">0002</text><circle cx="261.4" cy="189.3" r="4" fill="#0f766e"/><text x="261.4" y="252" text-anchor="middle" font-family="monospace" font-size="10">0003</text><circle cx="357.1" cy="190.6" r="4" fill="#0f766e"/><text x="357.1" y="252" text-anchor="middle" font-family="monospace" font-size="10">0004</text><circle cx="452.9" cy="190.9" r="4" fill="#0f766e"/><text x="452.9" y="252" text-anchor="middle" font-family="monospace" font-size="10">0006</text><circle cx="548.6" cy="200.6" r="4" fill="#0f766e"/><text x="548.6" y="252" text-anchor="middle" font-family="monospace" font-size="10">0008</text><circle cx="644.3" cy="201.5" r="4" fill="#0f766e"/><text x="644.3" y="252" text-anchor="middle" font-family="monospace" font-size="10">0018</text><circle cx="740.0" cy="202.3" r="4" fill="#0f766e"/><text x="740.0" y="252" text-anchor="middle" font-family="monospace" font-size="10">0025</text></svg>
