<svg xmlns="http://www.w3.org/2000/svg" width="760" height="280"><rect width="100%" height="100%" fill="#f8fafc"/><text x="20" y="24" font-family="monospace" font-size="16">Best Score By Run</text><line x1="70" y1="36.0" x2="740" y2="36.0" stroke="#e2e8f0"/><text x="62" y="40.0" text-anchor="end" font-family="monospace" font-size="10" fill="#475569">2.3242</text><line x1="70" y1="83.0" x2="740" y2="83.0" stroke="#e2e8f0"/><text x="62" y="87.0" text-anchor="end" font-family="monospace" font-size="10" fill="#475569">2.1134</text><line x1="70" y1="130.0" x2="740" y2="130.0" stroke="#e2e8f0"/><text x="62" y="134.0" text-anchor="end" font-family="monospace" font-size="10" fill="#475569">1.9027</text><line x1="70" y1="177.0" x2="740" y2="177.0" stroke="#e2e8f0"/><text x="62" y="181.0" text-anchor="end" font-family="monospace" font-size="10" fill="#475569">1.6919</text><line x1="70" y1="224.0" x2="740" y2="224.0" stroke="#e2e8f0"/><text x="62" y="228.0" text-anchor="end" font-family="monospace" font-size="10" fill="#475569">1.4811</text><polyline fill="none" stroke="#0f766e" stroke-width="3" points="70.0,57.7 181.7,189.6 293.3,189.8 405.0,191.2 516.7,191.5 628.3,201.2 740.0,202.3"/><circle cx="70.0" cy="57.7" r="4" fill="#0f766e"/><text x="70.0" y="252" text-anchor="middle" font-family="monospace" font-size="10">0001</text><circle cx="181.7" cy="189.6" r="4" fill="#0f766e"/><text x="181.7" y="252" text-anchor="middle" font-family="monospace" font-size="10">0002</text><circle cx="293.3" cy="189.8" r="4" fill="#0f766e"/><text x="293.3" y="252" text-anchor="middle" font-family="monospace" font-size="10">0003</text><circle cx="405.0" cy="191.2" r="4" fill="#0f766e"/><text x="405.0" y="252" text-anchor="middle" font-family="monospace" font-size="10">0004</text><circle cx="516.7" cy="191.5" r="4" fill="#0f766e"/><text x="516.7" y="252" text-anchor="middle" font-family="monospace" font-size="10">0006</text><circle cx="628.3" cy="201.2" r="4" fill="#0f766e"/><text x="628.3" y="252" text-anchor="middle" font-family="monospace" font-size="10">0008</text><circle cx="740.0" cy="202.3" r="4" fill="#0f766e"/><text x="740.0" y="252" text-anchor="middle" font-family="monospace" font-size="10">0010</text></svg>
