<svg xmlns="http://www.w3.org/2000/svg" width="760" height="280"><rect width="100%" height="100%" fill="#f8fafc"/><text x="20" y="24" font-family="monospace" font-size="16">Best Score By Run</text><line x1="70" y1="36.0" x2="740" y2="36.0" stroke="#e2e8f0"/><text x="62" y="40.0" text-anchor="end" font-family="monospace" font-size="10" fill="#475569">2.3235</text><line x1="70" y1="83.0" x2="740" y2="83.0" stroke="#e2e8f0"/><text x="62" y="87.0" text-anchor="end" font-family="monospace" font-size="10" fill="#475569">2.1143</text><line x1="70" y1="130.0" x2="740" y2="130.0" stroke="#e2e8f0"/><text x="62" y="134.0" text-anchor="end" font-family="monospace" font-size="10" fill="#475569">1.9051</text><line x1="70" y1="177.0" x2="740" y2="177.0" stroke="#e2e8f0"/><text x="62" y="181.0" text-anchor="end" font-family="monospace" font-size="10" fill="#475569">1.6960</text><line x1="70" y1="224.0" x2="740" y2="224.0" stroke="#e2e8f0"/><text x="62" y="228.0" text-anchor="end" font-family="monospace" font-size="10" fill="#475569">1.4868</text><polyline fill="none" stroke="#0f766e" stroke-width="3" points="70.0,57.7 204.0,190.7 338.0,190.8 472.0,192.2 606.0,192.5 740.0,202.3"/><circle cx="70.0" cy="57.7" r="4" fill="#0f766e"/><text x="70.0" y="252" text-anchor="middle" font-family="monospace" font-size="10">0001</text><circle cx="204.0" cy="190.7" r="4" fill="#0f766e"/><text x="204.0" y="252" text-anchor="middle" font-family="monospace" font-size="10">0002</text><circle cx="338.0" cy="190.8" r="4" fill="#0f766e"/><text x="338.0" y="252" text-anchor="middle" font-family="monospace" font-size="10">0003</text><circle cx="472.0" cy="192.2" r="4" fill="#0f766e"/><text x="472.0" y="252" text-anchor="middle" font-family="monospace" font-size="10">0004</text><circle cx="606.0" cy="192.5" r="4" fill="#0f766e"/><text x="606.0" y="252" text-anchor="middle" font-family="monospace" font-size="10">0006</text><circle cx="740.0" cy="202.3" r="4" fill="#0f766e"/><text x="740.0" y="252" text-anchor="middle" font-family="monospace" font-size="10">0008</text></svg>
