<svg xmlns="http://www.w3.org/2000/svg" width="760" height="280"><rect width="100%" height="100%" fill="#f8fafc"/><text x="20" y="24" font-family="monospace" font-size="16">Best Score By Run</text><line x1="70" y1="36.0" x2="740" y2="36.0" stroke="#e2e8f0"/><text x="62" y="40.0" text-anchor="end" font-family="monospace" font-size="10" fill="#475569">2.3261</text><line x1="70" y1="83.0" x2="740" y2="83.0" stroke="#e2e8f0"/><text x="62" y="87.0" text-anchor="end" font-family="monospace" font-size="10" fill="#475569">2.1112</text><line x1="70" y1="130.0" x2="740" y2="130.0" stroke="#e2e8f0"/><text x="62" y="134.0" text-anchor="end" font-family="monospace" font-size="10" fill="#475569">1.8962</text><line x1="70" y1="177.0" x2="740" y2="177.0" stroke="#e2e8f0"/><text x="62" y="181.0" text-anchor="end" font-family="monospace" font-size="10" fill="#475569">1.6812</text><line x1="70" y1="224.0" x2="740" y2="224.0" stroke="#e2e8f0"/><text x="62" y="228.0" text-anchor="end" font-family="monospace" font-size="10" fill="#475569">1.4662</text><polyline fill="none" stroke="#0f766e" stroke-width="3" points="70.0,57.7 137.0,187.0 204.0,187.2 271.0,188.6 338.0,188.8 405.0,198.4 472.0,199.3 539.0,200.1 606.0,200.4 673.0,201.9 740.0,202.3"/><circle cx="70.0" cy="57.7" r="4" fill="#0f766e"/><text x="70.0" y="252" text-anchor="middle" font-family="monospace" font-size="10">0001</text><circle cx="137.0" cy="187.0" r="4" fill="#0f766e"/><text x="137.0" y="252" text-anchor="middle" font-family="monospace" font-size="10">0002</text><circle cx="204.0" cy="187.2" r="4" fill="#0f766e"/><text x="204.0" y="252" text-anchor="middle" font-family="monospace" font-size="10">0003</text><circle cx="271.0" cy="188.6" r="4" fill="#0f766e"/><text x="271.0" y="252" text-anchor="middle" font-family="monospace" font-size="10">0004</text><circle cx="338.0" cy="188.8" r="4" fill="#0f766e"/><text x="338.0" y="252" text-anchor="middle" font-family="monospace" font-size="10">0006</text><circle cx="405.0" cy="198.4" r="4" fill="#0f766e"/><text x="405.0" y="252" text-anchor="middle" font-family="monospace" font-size="10">0008</text><circle cx="472.0" cy="199.3" r="4" fill="#0f766e"/><text x="472.0" y="252" text-anchor="middle" font-family="monospace" font-size="10">0018</text><circle cx="539.0" cy="200.1" r="4" fill="#0f766e"/><text x="539.0" y="252" text-anchor="middle" font-family="monospace" font-size="10">0025</text><circle cx="606.0" cy="200.4" r="4" fill="#0f766e"/><text x="606.0" y="252" text-anchor="middle" font-family="monospace" font-size="10">0026</text><circle cx="673.0" cy="201.9" r="4" fill="#0f766e"/><text x="673.0" y="252" text-anchor="middle" font-family="monospace" font-size="10">0033</text><circle cx="740.0" cy="202.3" r="4" fill="#0f766e"/><text x="740.0" y="252" text-anchor="middle" font-family="monospace" font-size="10">0053</text></svg>
