<svg xmlns="http://www.w3.org/2000/svg" width="760" height="280"><rect width="100%" height="100%" fill="#f8fafc"/><text x="20" y="24" font-family="monospace" font-size="16">Best Score By Run</text><line x1="70" y1="36.0" x2="740" y2="36.0" stroke="#e2e8f0"/><text x="62" y="40.0" text-anchor="end" font-family="monospace" font-size="10" fill="#475569">2.3326</text><line x1="70" y1="83.0" x2="740" y2="83.0" stroke="#e2e8f0"/><text x="62" y="87.0" text-anchor="end" font-family="monospace" font-size="10" fill="#475569">2.1036</text><line x1="70" y1="130.0" x2="740" y2="130.0" stroke="#e2e8f0"/><text x="62" y="134.0" text-anchor="end" font-family="monospace" font-size="10" fill="#475569">1.8746</text><line x1="70" y1="177.0" x2="740" y2="177.0" stroke="#e2e8f0"/><text x="62" y="181.0" text-anchor="end" font-family="monospace" font-size="10" fill="#475569">1.6456</text><line x1="70" y1="224.0" x2="740" y2="224.0" stroke="#e2e8f0"/><text x="62" y="228.0" text-anchor="end" font-family="monospace" font-size="10" fill="#475569">1.4166</text><polyline fill="none" stroke="#0f766e" stroke-width="3" points="70.0,57.7 105.3,179.1 140.5,179.3 175.8,180.6 211.1,180.8 246.3,189.8 281.6,190.6 316.8,191.4 352.1,191.7 387.4,193.1 422.6,193.5 457.9,194.7 493.2,195.4 528.4,197.0 563.7,198.1 598.9,198.2 634.2,198.7 669.5,199.8 704.7,200.7 740.0,202.3"/><circle cx="70.0" cy="57.7" r="4" fill="#0f766e"/><text x="70.0" y="252" text-anchor="middle" font-family="monospace" font-size="10">0001</text><circle cx="105.3" cy="179.1" r="4" fill="#0f766e"/><text x="105.3" y="252" text-anchor="middle" font-family="monospace" font-size="10">0002</text><circle cx="140.5" cy="179.3" r="4" fill="#0f766e"/><text x="140.5" y="252" text-anchor="middle" font-family="monospace" font-size="10">0003</text><circle cx="175.8" cy="180.6" r="4" fill="#0f766e"/><text x="175.8" y="252" text-anchor="middle" font-family="monospace" font-size="10">0004</text><circle cx="211.1" cy="180.8" r="4" fill="#0f766e"/><text x="211.1" y="252" text-anchor="middle" font-family="monospace" font-size="10">0006</text><circle cx="246.3" cy="189.8" r="4" fill="#0f766e"/><text x="246.3" y="252" text-anchor="middle" font-family="monospace" font-size="10">0008</text><circle cx="281.6" cy="190.6" r="4" fill="#0f766e"/><text x="281.6" y="252" text-anchor="middle" font-family="monospace" font-size="10">0018</text><circle cx="316.8" cy="191.4" r="4" fill="#0f766e"/><text x="316.8" y="252" text-anchor="middle" font-family="monospace" font-size="10">0025</text><circle cx="352.1" cy="191.7" r="4" fill="#0f766e"/><text x="352.1" y="252" text-anchor="middle" font-family="monospace" font-size="10">0026</text><circle cx="387.4" cy="193.1" r="4" fill="#0f766e"/><text x="387.4" y="252" text-anchor="middle" font-family="monospace" font-size="10">0033</text><circle cx="422.6" cy="193.5" r="4" fill="#0f766e"/><text x="422.6" y="252" text-anchor="middle" font-family="monospace" font-size="10">0053</text><circle cx="457.9" cy="194.7" r="4" fill="#0f766e"/><text x="457.9" y="252" text-anchor="middle" font-family="monospace" font-size="10">0008</text><circle cx="493.2" cy="195.4" r="4" fill="#0f766e"/><text x="493.2" y="252" text-anchor="middle" font-family="monospace" font-size="10">0009</text><circle cx="528.4" cy="197.0" r="4" fill="#0f766e"/><text x="528.4" y="252" text-anchor="middle" font-family="monospace" font-size="10">0010</text><circle cx="563.7" cy="198.1" r="4" fill="#0f766e"/><text x="563.7" y="252" text-anchor="middle" font-family="monospace" font-size="10">0011</text><circle cx="598.9" cy="198.2" r="4" fill="#0f766e"/><text x="598.9" y="252" text-anchor="middle" font-family="monospace" font-size="10">0008</text><circle cx="634.2" cy="198.7" r="4" fill="#0f766e"/><text x="634.2" y="252" text-anchor="middle" font-family="monospace" font-size="10">0016</text><circle cx="669.5" cy="199.8" r="4" fill="#0f766e"/><text x="669.5" y="252" text-anchor="middle" font-family="monospace" font-size="10">0017</text><circle cx="704.7" cy="200.7" r="4" fill="#0f766e"/><text x="704.7" y="252" text-anchor="middle" font-family="monospace" font-size="10">0025</text><circle cx="740.0" cy="202.3" r="4" fill="#0f766e"/><text x="740.0" y="252" text-anchor="middle" font-family="monospace" font-size="10">0026</text></svg>
