<svg xmlns="http://www.w3.org/2000/svg" width="760" height="280"><rect width="100%" height="100%" fill="#f8fafc"/><text x="20" y="24" font-family="monospace" font-size="16">Best Score By Run</text><line x1="70" y1="36.0" x2="740" y2="36.0" stroke="#e2e8f0"/><text x="62" y="40.0" text-anchor="end" font-family="monospace" font-size="10" fill="#475569">2.3299</text><line x1="70" y1="83.0" x2="740" y2="83.0" stroke="#e2e8f0"/><text x="62" y="87.0" text-anchor="end" font-family="monospace" font-size="10" fill="#475569">2.1067</text><line x1="70" y1="130.0" x2="740" y2="130.0" stroke="#e2e8f0"/><text x="62" y="134.0" text-anchor="end" font-family="monospace" font-size="10" fill="#475569">1.8835</text><line x1="70" y1="177.0" x2="740" y2="177.0" stroke="#e2e8f0"/><text x="62" y="181.0" text-anchor="end" font-family="monospace" font-size="10" fill="#475569">1.6603</text><line x1="70" y1="224.0" x2="740" y2="224.0" stroke="#e2e8f0"/><text x="62" y="228.0" text-anchor="end" font-family="monospace" font-size="10" fill="#475569">1.4371</text><polyline fill="none" stroke="#0f766e" stroke-width="3" points="70.0,57.7 111.9,182.3 153.8,182.4 195.6,183.8 237.5,184.0 279.4,193.2 321.2,194.1 363.1,194.8 405.0,195.1 446.9,196.6 488.8,197.0 530.6,198.3 572.5,198.9 614.4,200.6 656.2,201.7 698.1,201.8 740.0,202.3"/><circle cx="70.0" cy="57.7" r="4" fill="#0f766e"/><text x="70.0" y="252" text-anchor="middle" font-family="monospace" font-size="10">0001</text><circle cx="111.9" cy="182.3" r="4" fill="#0f766e"/><text x="111.9" y="252" text-anchor="middle" font-family="monospace" font-size="10">0002</text><circle cx="153.8" cy="182.4" r="4" fill="#0f766e"/><text x="153.8" y="252" text-anchor="middle" font-family="monospace" font-size="10">0003</text><circle cx="195.6" cy="183.8" r="4" fill="#0f766e"/><text x="195.6" y="252" text-anchor="middle" font-family="monospace" font-size="10">0004</text><circle cx="237.5" cy="184.0" r="4" fill="#0f766e"/><text x="237.5" y="252" text-anchor="middle" font-family="monospace" font-size="10">0006</text><circle cx="279.4" cy="193.2" r="4" fill="#0f766e"/><text x="279.4" y="252" text-anchor="middle" font-family="monospace" font-size="10">0008</text><circle cx="321.2" cy="194.1" r="4" fill="#0f766e"/><text x="321.2" y="252" text-anchor="middle" font-family="monospace" font-size="10">0018</text><circle cx="363.1" cy="194.8" r="4" fill="#0f766e"/><text x="363.1" y="252" text-anchor="middle" font-family="monospace" font-size="10">0025</text><circle cx="405.0" cy="195.1" r="4" fill="#0f766e"/><text x="405.0" y="252" text-anchor="middle" font-family="monospace" font-size="10">0026</text><circle cx="446.9" cy="196.6" r="4" fill="#0f766e"/><text x="446.9" y="252" text-anchor="middle" font-family="monospace" font-size="10">0033</text><circle cx="488.8" cy="197.0" r="4" fill="#0f766e"/><text x="488.8" y="252" text-anchor="middle" font-family="monospace" font-size="10">0053</text><circle cx="530.6" cy="198.3" r="4" fill="#0f766e"/><text x="530.6" y="252" text-anchor="middle" font-family="monospace" font-size="10">0008</text><circle cx="572.5" cy="198.9" r="4" fill="#0f766e"/><text x="572.5" y="252" text-anchor="middle" font-family="monospace" font-size="10">0009</text><circle cx="614.4" cy="200.6" r="4" fill="#0f766e"/><text x="614.4" y="252" text-anchor="middle" font-family="monospace" font-size="10">0010</text><circle cx="656.2" cy="201.7" r="4" fill="#0f766e"/><text x="656.2" y="252" text-anchor="middle" font-family="monospace" font-size="10">0011</text><circle cx="698.1" cy="201.8" r="4" fill="#0f766e"/><text x="698.1" y="252" text-anchor="middle" font-family="monospace" font-size="10">0008</text><circle cx="740.0" cy="202.3" r="4" fill="#0f766e"/><text x="740.0" y="252" text-anchor="middle" font-family="monospace" font-size="10">0016</text></svg>
